<svg width="40" height="40" viewBox="0 0 40 40" fill="none" xmlns="http://www.w3.org/2000/svg">
<path d="M2.27966 25.0491C0.535025 23.5874 0.628094 21.0228 2.27467 19.6693C2.11388 19.5011 1.94145 19.3433 1.79561 19.1643C0.326035 17.3591 0.967132 14.7204 3.10274 13.7994C4.84488 13.048 6.592 12.3082 8.33747 11.5633C11.631 10.1582 14.925 8.75353 18.219 7.34841C19.1967 6.93125 20.1755 6.51617 21.1511 6.09401C21.3971 5.98785 21.6368 5.97786 21.8969 6.03281C23.9266 6.46038 25.9575 6.88004 27.988 7.30303C29.3441 7.58531 30.6999 7.87008 32.056 8.15235C34.2356 8.60573 36.4153 9.05787 38.5949 9.51083C38.8376 9.56121 39.0802 9.61325 39.3221 9.66862C39.7076 9.75688 39.9532 10.0088 39.9843 10.3431C40.0213 10.7444 39.8547 11.0375 39.4808 11.209C38.295 11.7536 37.1083 12.2952 35.9217 12.8377C31.6904 14.772 27.4541 16.695 23.2335 18.6534C22.6942 18.9037 22.2206 18.7971 21.7108 18.6913C19.3358 18.1976 16.9609 17.705 14.586 17.2096C12.5563 16.7862 10.5275 16.3574 8.49785 15.934C7.22272 15.6679 5.948 15.399 4.67079 15.1454C3.77624 14.9681 2.77367 15.7071 2.63241 16.6272C2.47328 17.6634 3.05163 18.529 4.07789 18.7604C4.96412 18.9603 5.85535 19.1372 6.74033 19.3237C6.81471 19.0419 6.86166 18.7621 6.96428 18.5048C7.07148 18.2375 7.23435 17.9927 7.3698 17.7363C7.43212 17.6184 7.52228 17.6043 7.64277 17.6297C8.99809 17.9153 10.3542 18.1976 11.7104 18.4807C11.818 18.5031 11.9252 18.5281 12.0553 18.5568C11.6842 19.086 11.4648 19.6568 11.4399 20.3034C12.1712 20.4541 12.8916 20.601 13.6121 20.7509C15.6355 21.1722 17.6589 21.594 19.6824 22.0165C20.5661 22.201 21.4486 22.3912 22.334 22.569C22.4337 22.589 22.558 22.5711 22.6514 22.5282C28.027 20.0735 33.4001 17.6143 38.774 15.1554C39.2589 14.9335 39.6927 15.0605 39.9091 15.4868C40.1219 15.9052 39.9449 16.3782 39.4882 16.5889C38.3157 17.1293 37.142 17.6659 35.9678 18.203C32.6842 19.7051 29.4006 21.2068 26.117 22.7085C25.0625 23.1906 24.0051 23.6669 22.9543 24.1577C22.6556 24.2972 22.3731 24.2185 22.0851 24.1581C19.1244 23.5403 16.1636 22.92 13.2032 22.3005C12.6639 22.1877 12.1242 22.0753 11.5845 21.9641C11.5446 21.9558 11.5022 21.9591 11.4507 21.9566V25.6873C12.5268 25.9134 13.5975 26.1395 14.6687 26.363C16.1187 26.6653 17.5692 26.9659 19.0197 27.2669C20.1261 27.4963 21.2321 27.7278 22.3398 27.9509C22.4316 27.9692 22.5451 27.9572 22.6302 27.9184C25.1306 26.7802 27.629 25.6374 30.1273 24.4945C33.0025 23.1794 35.8777 21.8629 38.7528 20.5477C39.2298 20.3296 39.6686 20.4412 39.89 20.8329C40.1306 21.2588 39.9548 21.763 39.4887 21.9762C37.8633 22.7201 36.2371 23.4625 34.6117 24.206C30.7439 25.975 26.8749 27.7415 23.0112 29.5188C22.6531 29.6837 22.3224 29.5925 21.9821 29.5221C19.5939 29.0284 17.2061 28.5304 14.8187 28.0317C12.3237 27.5104 9.82907 26.9867 7.33365 26.465C6.46362 26.2831 5.594 26.097 4.72189 25.9259C3.77874 25.7406 2.7745 26.4617 2.63158 27.4138C2.47078 28.4859 3.10482 29.346 4.20835 29.5738C6.53633 30.0542 8.86223 30.5434 11.1894 31.0272C14.3525 31.6841 17.5164 32.339 20.6799 32.9952C21.2197 33.1072 21.7581 33.2258 22.2995 33.3282C22.4121 33.3495 22.5505 33.3428 22.6527 33.2962C25.0218 32.2191 27.3872 31.1346 29.7534 30.0521C32.7735 28.6707 35.7941 27.2898 38.8147 25.9088C39.2572 25.7065 39.7375 25.8693 39.9249 26.2823C40.1152 26.7015 39.9353 27.1566 39.4812 27.3651C37.4042 28.3185 35.3246 29.2669 33.2464 30.2178C29.856 31.7687 26.4648 33.3182 23.0765 34.8732C22.8143 34.9936 22.5621 35.0323 22.2763 34.9719C19.9034 34.4723 17.5281 33.9831 15.1544 33.4885C12.9415 33.0276 10.729 32.5639 8.51654 32.1017C6.88409 31.7607 5.24956 31.4298 3.62002 31.0755C2.30293 30.789 1.24052 29.6266 1.05148 28.3094C0.864091 27.0025 1.28581 25.9267 2.27924 25.0503L2.27966 25.0491ZM36.6438 10.7415C35.598 10.5254 34.6133 10.3235 33.6295 10.1183C31.5254 9.67986 29.4218 9.23938 27.3182 8.80057C25.4838 8.41797 23.6499 8.03536 21.8142 7.65775C21.7257 7.63943 21.6173 7.64484 21.5354 7.6794C20.087 8.29223 18.6411 8.91173 17.1944 9.52873C14.2499 10.7844 11.3053 12.0396 8.36074 13.2953C7.86714 13.5055 7.37437 13.7178 6.83216 13.9502C7.04364 13.9951 7.20236 14.0293 7.36149 14.0626C9.99111 14.6117 12.6207 15.1613 15.2504 15.7104C17.57 16.1946 19.8897 16.6788 22.2102 17.1584C22.3323 17.1838 22.4827 17.2109 22.587 17.1638C24.5245 16.2878 26.4565 15.3998 28.3902 14.5155C30.5237 13.5397 32.6576 12.565 34.7912 11.59C35.3911 11.3156 35.9907 11.0404 36.6438 10.7411V10.7415ZM6.7449 20.957C6.2538 20.8567 5.77682 20.7472 5.29527 20.6647C4.93836 20.6035 4.57024 20.5182 4.21583 20.5473C3.32004 20.6218 2.64903 21.3467 2.60041 22.2614C2.55263 23.1577 3.16091 23.9387 3.97609 24.1244C4.55985 24.2572 5.14777 24.3742 5.73402 24.4975C6.06683 24.5674 6.40005 24.6357 6.7449 24.7073V20.957ZM7.47201 24.8601C8.5664 25.0882 9.62548 25.3093 10.7232 25.5383C10.1685 24.7835 9.63545 24.0582 9.09615 23.3238C8.54978 23.8405 8.02336 24.338 7.47201 24.8597V24.8601Z" fill="white"/>
<path d="M19 10.0214C19.8847 9.67239 20.7197 9.33868 21.5599 9.0171C21.6484 8.98316 21.7716 9.007 21.8735 9.02639C24.5119 9.5326 27.1498 10.0416 29.7877 10.5511C30.5151 10.6917 31.2421 10.8343 32 10.9822C31.9438 11.0149 31.9094 11.0403 31.8702 11.0569C31.2451 11.3219 30.6083 11.5647 29.9989 11.8572C29.6509 12.0241 29.329 12.0277 28.9622 11.9546C27.1049 11.5849 25.2441 11.2302 23.3846 10.8711C22.0273 10.6089 20.6696 10.3483 19.3123 10.0865C19.2239 10.0695 19.1363 10.0497 19.0004 10.0214H19Z" fill="white"/>
</svg>
