<svg width="39" height="29" viewBox="0 0 39 29" fill="none" xmlns="http://www.w3.org/2000/svg">
<path d="M1.27966 19.0491C-0.464975 17.5874 -0.371906 15.0228 1.27467 13.6693C1.11388 13.5011 0.941451 13.3433 0.795615 13.1643C-0.673965 11.3591 -0.0328679 8.72037 2.10274 7.79945C3.84488 7.04797 5.592 6.30815 7.33747 5.56334C10.631 4.15823 13.925 2.75353 17.219 1.34841C18.1967 0.931252 19.1755 0.516171 20.1511 0.0940127C20.3971 -0.0121514 20.6368 -0.0221433 20.8969 0.0328122C22.9266 0.460383 24.9575 0.880044 26.988 1.30303C28.3441 1.58531 29.6999 1.87008 31.056 2.15235C33.2356 2.60573 35.4153 3.05787 37.5949 3.51083C37.8376 3.56121 38.0802 3.61325 38.3221 3.66862C38.7076 3.75688 38.9532 4.00876 38.9843 4.34308C39.0213 4.74442 38.8547 5.03751 38.4808 5.20904C37.295 5.7536 36.1083 6.29525 34.9217 6.83772C30.6904 8.77199 26.4541 10.695 22.2335 12.6534C21.6942 12.9037 21.2206 12.7971 20.7108 12.6913C18.3358 12.1976 15.9609 11.705 13.586 11.2096C11.5563 10.7862 9.5275 10.3574 7.49785 9.93397C6.22272 9.66793 4.948 9.39898 3.67079 9.14544C2.77624 8.96808 1.77367 9.70707 1.63241 10.6272C1.47328 11.6634 2.05163 12.529 3.07789 12.7604C3.96412 12.9603 4.85535 13.1372 5.74033 13.3237C5.81471 13.0419 5.86166 12.7621 5.96428 12.5048C6.07148 12.2375 6.23435 11.9927 6.3698 11.7363C6.43212 11.6184 6.52228 11.6043 6.64277 11.6297C7.99809 11.9153 9.35425 12.1976 10.7104 12.4807C10.818 12.5031 10.9252 12.5281 11.0553 12.5568C10.6842 13.086 10.4648 13.6568 10.4399 14.3034C11.1712 14.4541 11.8916 14.601 12.6121 14.7509C14.6355 15.1722 16.6589 15.594 18.6824 16.0165C19.5661 16.201 20.4486 16.3912 21.334 16.569C21.4337 16.589 21.558 16.5711 21.6514 16.5282C27.027 14.0735 32.4001 11.6143 37.774 9.15543C38.2589 8.93353 38.6927 9.06051 38.9091 9.48683C39.1219 9.90524 38.9449 10.3782 38.4882 10.5889C37.3157 11.1293 36.142 11.6659 34.9678 12.203C31.6842 13.7051 28.4006 15.2068 25.117 16.7085C24.0625 17.1906 23.0051 17.6669 21.9543 18.1577C21.6556 18.2972 21.3731 18.2185 21.0851 18.1581C18.1244 17.5403 15.1636 16.92 12.2032 16.3005C11.6639 16.1877 11.1242 16.0753 10.5845 15.9641C10.5446 15.9558 10.5022 15.9591 10.4507 15.9566V19.6873C11.5268 19.9134 12.5975 20.1395 13.6687 20.363C15.1187 20.6653 16.5692 20.9659 18.0197 21.2669C19.1261 21.4963 20.2321 21.7278 21.3398 21.9509C21.4316 21.9692 21.5451 21.9572 21.6302 21.9184C24.1306 20.7802 26.629 19.6374 29.1273 18.4945C32.0025 17.1794 34.8777 15.8629 37.7528 14.5477C38.2298 14.3296 38.6686 14.4412 38.89 14.8329C39.1306 15.2588 38.9548 15.763 38.4887 15.9762C36.8633 16.7201 35.2371 17.4625 33.6117 18.206C29.7439 19.975 25.8749 21.7415 22.0112 23.5188C21.6531 23.6837 21.3224 23.5925 20.9821 23.5221C18.5939 23.0284 16.2061 22.5304 13.8187 22.0317C11.3237 21.5104 8.82907 20.9867 6.33365 20.465C5.46362 20.2831 4.594 20.097 3.72189 19.9259C2.77874 19.7406 1.7745 20.4617 1.63158 21.4138C1.47078 22.4859 2.10482 23.346 3.20835 23.5738C5.53633 24.0542 7.86223 24.5434 10.1894 25.0272C13.3525 25.6841 16.5164 26.339 19.6799 26.9952C20.2197 27.1072 20.7581 27.2258 21.2995 27.3282C21.4121 27.3495 21.5505 27.3428 21.6527 27.2962C24.0218 26.2191 26.3872 25.1346 28.7534 24.0521C31.7735 22.6707 34.7941 21.2898 37.8147 19.9088C38.2572 19.7065 38.7375 19.8693 38.9249 20.2823C39.1152 20.7015 38.9353 21.1566 38.4812 21.3651C36.4042 22.3185 34.3246 23.2669 32.2464 24.2178C28.856 25.7687 25.4648 27.3182 22.0765 28.8732C21.8143 28.9936 21.5621 29.0323 21.2763 28.9719C18.9034 28.4723 16.5281 27.9831 14.1544 27.4885C11.9415 27.0276 9.72902 26.5639 7.51654 26.1017C5.88409 25.7607 4.24956 25.4298 2.62002 25.0755C1.30293 24.789 0.240523 23.6266 0.0514761 22.3094C-0.135909 21.0025 0.285811 19.9267 1.27924 19.0503L1.27966 19.0491ZM35.6438 4.7415C34.598 4.52543 33.6133 4.32351 32.6295 4.11826C30.5254 3.67986 28.4218 3.23938 26.3182 2.80057C24.4838 2.41797 22.6499 2.03536 20.8142 1.65775C20.7257 1.63943 20.6173 1.64484 20.5354 1.6794C19.087 2.29223 17.6411 2.91173 16.1944 3.52873C13.2499 4.78439 10.3053 6.03962 7.36074 7.29527C6.86714 7.50552 6.37437 7.71785 5.83216 7.95016C6.04364 7.99512 6.20236 8.02926 6.36149 8.06257C8.99111 8.61171 11.6207 9.16126 14.2504 9.7104C16.57 10.1946 18.8897 10.6788 21.2102 11.1584C21.3323 11.1838 21.4827 11.2109 21.587 11.1638C23.5245 10.2878 25.4565 9.39982 27.3902 8.51553C29.5237 7.53966 31.6576 6.56503 33.7912 5.58998C34.3911 5.31562 34.9907 5.04043 35.6438 4.74109V4.7415ZM5.7449 14.957C5.2538 14.8567 4.77682 14.7472 4.29527 14.6647C3.93836 14.6035 3.57024 14.5182 3.21583 14.5473C2.32004 14.6218 1.64903 15.3467 1.60041 16.2614C1.55263 17.1577 2.16091 17.9387 2.97609 18.1244C3.55985 18.2572 4.14777 18.3742 4.73402 18.4975C5.06683 18.5674 5.40005 18.6357 5.7449 18.7073V14.957ZM6.47201 18.8601C7.5664 19.0882 8.62548 19.3093 9.7232 19.5383C9.16852 18.7835 8.63545 18.0582 8.09615 17.3238C7.54978 17.8405 7.02336 18.338 6.47201 18.8597V18.8601Z" fill="white"/>
</svg>
