<svg width="184" height="174" viewBox="0 0 184 174" fill="none" xmlns="http://www.w3.org/2000/svg">
<g filter="url(#filter0_d_1_1287)">
<path d="M54.8967 116.381C55.2069 115.455 55.4478 114.503 55.8333 113.61C60.1696 103.577 65.7677 94.237 71.5435 84.9966C73.4858 81.8914 75.5245 78.8434 77.5963 75.8225C78.1715 74.9844 78.2227 74.4689 77.5512 73.6308C69.806 63.9442 62.1089 54.2214 54.3999 44.5077C53.9963 43.9982 53.6079 43.4766 53.0508 42.7531C53.632 42.6958 54.0355 42.6204 54.439 42.6204C59.5071 42.6114 64.5783 42.5752 69.6434 42.6596C70.3028 42.6717 71.143 43.157 71.5766 43.6907C76.3978 49.6057 81.1528 55.5751 85.9288 61.5263C86.2359 61.9122 86.5642 62.28 86.9858 62.7774C88.383 61.0982 89.702 59.4823 91.0541 57.8965C96.598 51.3815 102.413 45.1438 109.511 40.2628C113.35 37.6188 117.409 35.4934 122.167 35.0623C127.943 34.5377 131.183 37.3354 130.937 43.1359C130.675 49.3314 128.443 54.9661 125.182 60.2028C125.058 60.4018 124.866 60.5585 124.483 60.6158C124.854 59.7234 125.326 58.8552 125.576 57.9296C126.413 54.8455 127.211 51.7463 127.934 48.6319C128.112 47.8722 128 47.0281 127.925 46.2322C127.567 42.4486 125.257 40.5764 121.631 41.6707C118.792 42.53 116.009 43.8414 113.471 45.394C106.731 49.5123 101.169 55.0535 95.8632 60.8329C83.7726 74.0046 73.4377 88.5119 63.6959 103.465C61.1483 107.376 58.673 111.337 56.1615 115.271C55.8815 115.712 55.5743 116.134 55.2792 116.565C55.1527 116.504 55.0262 116.444 54.8998 116.381H54.8967Z" fill="#C1BBEB"/>
<path d="M93.0388 69.8282C102.081 81.2162 110.91 92.3359 119.952 103.727C118.288 103.727 116.961 103.727 115.633 103.727C111.534 103.727 107.435 103.757 103.339 103.694C102.733 103.685 101.925 103.398 101.564 102.952C95.8827 95.8898 90.258 88.7821 84.6244 81.6804C84.5013 81.5267 84.4142 81.3458 84.21 81.0052C87.0898 77.3579 89.9968 73.6775 93.0358 69.8252L93.0388 69.8282Z" fill="#C1BBEB"/>
</g>
<g filter="url(#filter1_d_1_1287)">
<path d="M55.8359 133.564L53.5259 129.484H52.5359V133.564H50.4359V123.094H54.3659C55.1759 123.094 55.8659 123.239 56.4359 123.529C57.0059 123.809 57.4309 124.194 57.7109 124.684C58.0009 125.164 58.1459 125.704 58.1459 126.304C58.1459 126.994 57.9459 127.619 57.5459 128.179C57.1459 128.729 56.5509 129.109 55.7609 129.319L58.2659 133.564H55.8359ZM52.5359 127.909H54.2909C54.8609 127.909 55.2859 127.774 55.5659 127.504C55.8459 127.224 55.9859 126.839 55.9859 126.349C55.9859 125.869 55.8459 125.499 55.5659 125.239C55.2859 124.969 54.8609 124.834 54.2909 124.834H52.5359V127.909ZM75.4203 129.229C75.4203 129.529 75.4003 129.799 75.3603 130.039H69.2853C69.3353 130.639 69.5453 131.109 69.9153 131.449C70.2853 131.789 70.7403 131.959 71.2803 131.959C72.0603 131.959 72.6153 131.624 72.9453 130.954H75.2103C74.9703 131.754 74.5103 132.414 73.8303 132.934C73.1503 133.444 72.3153 133.699 71.3253 133.699C70.5253 133.699 69.8053 133.524 69.1653 133.174C68.5353 132.814 68.0403 132.309 67.6803 131.659C67.3303 131.009 67.1553 130.259 67.1553 129.409C67.1553 128.549 67.3303 127.794 67.6803 127.144C68.0303 126.494 68.5203 125.994 69.1503 125.644C69.7803 125.294 70.5053 125.119 71.3253 125.119C72.1153 125.119 72.8203 125.289 73.4403 125.629C74.0703 125.969 74.5553 126.454 74.8953 127.084C75.2453 127.704 75.4203 128.419 75.4203 129.229ZM73.2453 128.629C73.2353 128.089 73.0403 127.659 72.6603 127.339C72.2803 127.009 71.8153 126.844 71.2653 126.844C70.7453 126.844 70.3053 127.004 69.9453 127.324C69.5953 127.634 69.3803 128.069 69.3003 128.629H73.2453ZM87.7831 133.699C87.1031 133.699 86.4931 133.579 85.9531 133.339C85.4131 133.089 84.9831 132.754 84.6631 132.334C84.3531 131.914 84.1831 131.449 84.1531 130.939H86.2681C86.3081 131.259 86.4631 131.524 86.7331 131.734C87.0131 131.944 87.3581 132.049 87.7681 132.049C88.1681 132.049 88.4781 131.969 88.6981 131.809C88.9281 131.649 89.0431 131.444 89.0431 131.194C89.0431 130.924 88.9031 130.724 88.6231 130.594C88.3531 130.454 87.9181 130.304 87.3181 130.144C86.6981 129.994 86.1881 129.839 85.7881 129.679C85.3981 129.519 85.0581 129.274 84.7681 128.944C84.4881 128.614 84.3481 128.169 84.3481 127.609C84.3481 127.149 84.4781 126.729 84.7381 126.349C85.0081 125.969 85.3881 125.669 85.8781 125.449C86.3781 125.229 86.9631 125.119 87.6331 125.119C88.6231 125.119 89.4131 125.369 90.0031 125.869C90.5931 126.359 90.9181 127.024 90.9781 127.864H88.9681C88.9381 127.534 88.7981 127.274 88.5481 127.084C88.3081 126.884 87.9831 126.784 87.5731 126.784C87.1931 126.784 86.8981 126.854 86.6881 126.994C86.4881 127.134 86.3881 127.329 86.3881 127.579C86.3881 127.859 86.5281 128.074 86.8081 128.224C87.0881 128.364 87.5231 128.509 88.1131 128.659C88.7131 128.809 89.2081 128.964 89.5981 129.124C89.9881 129.284 90.3231 129.534 90.6031 129.874C90.8931 130.204 91.0431 130.644 91.0531 131.194C91.0531 131.674 90.9181 132.104 90.6481 132.484C90.3881 132.864 90.0081 133.164 89.5081 133.384C89.0181 133.594 88.4431 133.699 87.7831 133.699ZM108.272 125.254V133.564H106.157V132.514C105.887 132.874 105.532 133.159 105.092 133.369C104.662 133.569 104.192 133.669 103.682 133.669C103.032 133.669 102.457 133.534 101.957 133.264C101.457 132.984 101.062 132.579 100.772 132.049C100.492 131.509 100.352 130.869 100.352 130.129V125.254H102.452V129.829C102.452 130.489 102.617 130.999 102.947 131.359C103.277 131.709 103.727 131.884 104.297 131.884C104.877 131.884 105.332 131.709 105.662 131.359C105.992 130.999 106.157 130.489 106.157 129.829V125.254H108.272ZM120.094 122.464V133.564H117.994V122.464H120.094ZM132.264 126.979V130.999C132.264 131.279 132.329 131.484 132.459 131.614C132.599 131.734 132.829 131.794 133.149 131.794H134.124V133.564H132.804C131.034 133.564 130.149 132.704 130.149 130.984V126.979H129.159V125.254H130.149V123.199H132.264V125.254H134.124V126.979H132.264Z" fill="#C1BBEB"/>
</g>
<defs>
<filter id="filter0_d_1_1287" x="0.35078" y="-13.7" width="183.298" height="186.964" filterUnits="userSpaceOnUse" color-interpolation-filters="sRGB">
<feFlood flood-opacity="0" result="BackgroundImageFix"/>
<feColorMatrix in="SourceAlpha" type="matrix" values="0 0 0 0 0 0 0 0 0 0 0 0 0 0 0 0 0 0 127 0" result="hardAlpha"/>
<feOffset dy="4"/>
<feGaussianBlur stdDeviation="26.35"/>
<feComposite in2="hardAlpha" operator="out"/>
<feColorMatrix type="matrix" values="0 0 0 0 0 0 0 0 0 0 0 0 0 0 0 0 0 0 0.5 0"/>
<feBlend mode="normal" in2="BackgroundImageFix" result="effect1_dropShadow_1_1287"/>
<feBlend mode="normal" in="SourceGraphic" in2="effect1_dropShadow_1_1287" result="shape"/>
</filter>
<filter id="filter1_d_1_1287" x="46.4355" y="122.465" width="91.6885" height="19.2344" filterUnits="userSpaceOnUse" color-interpolation-filters="sRGB">
<feFlood flood-opacity="0" result="BackgroundImageFix"/>
<feColorMatrix in="SourceAlpha" type="matrix" values="0 0 0 0 0 0 0 0 0 0 0 0 0 0 0 0 0 0 127 0" result="hardAlpha"/>
<feOffset dy="4"/>
<feGaussianBlur stdDeviation="2"/>
<feComposite in2="hardAlpha" operator="out"/>
<feColorMatrix type="matrix" values="0 0 0 0 0.372549 0 0 0 0 0.196078 0 0 0 0 0.576471 0 0 0 0.25 0"/>
<feBlend mode="normal" in2="BackgroundImageFix" result="effect1_dropShadow_1_1287"/>
<feBlend mode="normal" in="SourceGraphic" in2="effect1_dropShadow_1_1287" result="shape"/>
</filter>
</defs>
</svg>
