<svg width="30" height="34" viewBox="0 0 30 34" fill="none" xmlns="http://www.w3.org/2000/svg">
<path d="M28.3334 10.3329L18.3334 1.56619C17.4167 0.746264 16.2299 0.292969 15 0.292969C13.7701 0.292969 12.5834 0.746264 11.6667 1.56619L1.6667 10.3329C1.13732 10.8063 0.714869 11.3871 0.427489 12.0366C0.140109 12.6861 -0.00560967 13.3893 3.59199e-05 14.0995V28.6662C3.59199e-05 29.9923 0.52682 31.264 1.4645 32.2017C2.40218 33.1394 3.67395 33.6662 5.00004 33.6662H25C26.3261 33.6662 27.5979 33.1394 28.5356 32.2017C29.4733 31.264 30 29.9923 30 28.6662V14.0829C30.0033 13.3755 29.8564 12.6754 29.5691 12.029C29.2818 11.3826 28.8606 10.8044 28.3334 10.3329ZM18.3334 30.3329H11.6667V21.9995C11.6667 21.5575 11.8423 21.1336 12.1549 20.821C12.4674 20.5084 12.8913 20.3329 13.3334 20.3329H16.6667C17.1087 20.3329 17.5327 20.5084 17.8452 20.821C18.1578 21.1336 18.3334 21.5575 18.3334 21.9995V30.3329ZM26.6667 28.6662C26.6667 29.1082 26.4911 29.5321 26.1785 29.8447C25.866 30.1573 25.4421 30.3329 25 30.3329H21.6667V21.9995C21.6667 20.6734 21.1399 19.4017 20.2022 18.464C19.2646 17.5263 17.9928 16.9995 16.6667 16.9995H13.3334C12.0073 16.9995 10.7355 17.5263 9.79783 18.464C8.86015 19.4017 8.33337 20.6734 8.33337 21.9995V30.3329H5.00004C4.55801 30.3329 4.13409 30.1573 3.82152 29.8447C3.50896 29.5321 3.33337 29.1082 3.33337 28.6662V14.0829C3.33367 13.8462 3.38436 13.6123 3.48206 13.3968C3.57977 13.1813 3.72225 12.989 3.90004 12.8329L13.9 4.08286C14.2042 3.81566 14.5952 3.6683 15 3.6683C15.4049 3.6683 15.7959 3.81566 16.1 4.08286L26.1 12.8329C26.2778 12.989 26.4203 13.1813 26.518 13.3968C26.6157 13.6123 26.6664 13.8462 26.6667 14.0829V28.6662Z" fill="#F9F4FF"/>
</svg>
