<svg width="40" height="40" viewBox="0 0 40 40" fill="none" xmlns="http://www.w3.org/2000/svg">
<g clip-path="url(#clip0_1_171)">
<path d="M12.9817 3.15758C13.1404 2.00163 13.3563 1.82146 14.5276 1.82146C15.8683 1.82146 17.2079 1.82146 18.5485 1.82146C18.739 1.82146 18.9295 1.82146 19.1062 1.82146C19.4279 0.582195 20.0437 0.00629961 21.0077 5.1197e-05C21.9843 -0.00619722 22.597 0.559285 22.9197 1.81626C23.4604 1.81626 24.0191 1.81626 24.5789 1.81626C25.5841 1.81626 26.5893 1.81626 27.5946 1.81626C28.5427 1.81626 28.7427 2.00059 28.7998 2.91702C28.804 2.98367 28.8199 3.04928 28.8347 3.14717C29.2432 3.17737 29.6452 3.1857 30.041 3.2409C32.8144 3.62517 34.7645 5.73193 34.8227 8.49373C34.8714 10.8181 34.8354 13.1446 34.8375 15.4701C34.8375 15.6752 34.8375 15.8794 34.9635 16.1595C36.8332 14.3464 38.704 12.5344 40.5928 10.7025C40.7409 10.7786 40.8732 10.8473 41.0234 10.9244C41.2678 10.6963 41.5091 10.4714 41.7429 10.2537C42.163 10.6796 42.5704 11.092 43.0011 11.5284C42.9799 11.8814 42.0657 11.9189 42.4805 12.5021C41.6477 13.3623 40.8361 14.2256 39.997 15.0619C38.4363 16.6177 36.867 18.1663 35.282 19.6982C34.9518 20.0169 34.8344 20.3459 34.8365 20.7948C34.8523 24.3522 34.8566 27.9107 34.8407 31.4681C34.828 34.131 33.1868 36.2159 30.6261 36.8397C30.186 36.9469 29.7204 36.9938 29.2664 36.9938C23.7641 37.0021 18.2628 37.0032 12.7605 36.9938C9.47606 36.9886 7.0106 34.5538 7.00848 31.3223C7.00002 23.7888 6.99896 16.2563 7.00213 8.72388C7.00319 5.76213 9.33004 3.39502 12.4251 3.18987C12.5997 3.17841 12.7732 3.16904 12.9817 3.15758ZM13.1087 5.07481C10.9024 4.69469 8.83589 6.52444 8.83589 8.80303C8.83589 16.2647 8.83589 23.7263 8.83906 31.189C8.83906 33.6103 10.4115 35.1703 12.8663 35.1734C18.2967 35.1818 23.7281 35.1838 29.1585 35.1807C31.4515 35.1797 33.0017 33.653 33.0091 31.3817C33.0186 28.4668 33.0091 25.5509 33.0038 22.636C33.0038 22.4725 32.9837 22.309 32.9678 22.0674C32.8017 22.1976 32.7012 22.26 32.6186 22.3413C31.7605 23.19 30.8335 23.9836 30.0643 24.9042C28.6665 26.5777 26.8168 27.4879 24.7175 28.2325C25.09 27.416 25.3958 26.6464 25.7841 25.9206C26.1767 25.1864 26.6497 24.4949 27.1089 23.7513H16.3381V22.8484H17.0132C20.5929 22.8484 24.1715 22.8557 27.7512 22.8349C28.0316 22.8328 28.3839 22.711 28.5786 22.5214C29.9447 21.1916 31.2684 19.82 32.6281 18.4839C32.917 18.1996 33.0186 17.907 33.0175 17.5196C33.007 14.6734 33.0154 11.8273 33.008 8.98215C33.008 8.61974 32.9826 8.25109 32.9149 7.89493C32.5625 6.04435 30.7161 4.72802 28.9352 5.08939C29.0442 5.54136 29.15 5.99332 29.2633 6.44425C29.4791 7.30445 29.1416 7.73559 28.2284 7.73767C26.5354 7.74288 24.8434 7.74288 23.1504 7.74288C20.0299 7.74288 16.9084 7.74392 13.788 7.73663C12.8917 7.73455 12.5521 7.28154 12.77 6.4203C12.8801 5.98395 12.9901 5.5476 13.1097 5.07585L13.1087 5.07481ZM21.9473 1.82563C21.9526 1.32159 21.524 0.889409 21.0172 0.887326C20.522 0.885244 20.1082 1.27785 20.0924 1.76627C20.0765 2.28385 20.4744 2.71186 20.9897 2.72957C21.5039 2.74727 21.942 2.33384 21.9462 1.82667L21.9473 1.82563ZM39.8267 12.1376C40.27 12.5844 40.6795 12.9968 41.1218 13.4425C41.3377 13.2123 41.5535 12.9811 41.7493 12.7718C41.2943 12.3261 40.888 11.9293 40.4732 11.5253C40.2605 11.7273 40.0383 11.9377 39.8267 12.1386V12.1376ZM26.3364 25.5488C26.1587 25.9279 25.9767 26.2444 25.8656 26.5839C25.8201 26.7214 25.8814 26.9484 25.9809 27.0599C26.0634 27.1515 26.2962 27.1963 26.4222 27.1525C26.7787 27.0265 27.1142 26.8433 27.4856 26.6693C27.0972 26.2903 26.7428 25.9456 26.3354 25.5488H26.3364Z" fill="white"/>
<path d="M29.186 13.7344C29.4018 14.5508 29.3563 14.6029 28.5373 14.6019C24.6825 14.5987 20.8277 14.5998 16.9719 14.5987C16.7655 14.5987 16.5603 14.5987 16.3232 14.5987V13.7344H29.186Z" fill="white"/>
<path d="M16.3271 19.1647V18.3076H29.2005C29.3803 19.1314 29.3454 19.1699 28.5603 19.1689C24.7002 19.1657 20.8412 19.1657 16.9811 19.1647C16.7737 19.1647 16.5663 19.1647 16.3271 19.1647Z" fill="white"/>
<path d="M23.6824 27.458V28.2641C23.5174 28.2807 23.3671 28.3088 23.2168 28.3099C21.1588 28.314 19.1017 28.314 17.0437 28.314C16.497 28.314 16.2631 28.0287 16.3421 27.458H23.6835H23.6824Z" fill="white"/>
<path d="M13.565 28.7643C13.074 28.7518 12.6687 28.3373 12.6719 27.852C12.6751 27.3418 13.1163 26.9273 13.6274 26.9533C14.1163 26.9783 14.5099 27.4053 14.4919 27.8906C14.4739 28.3842 14.057 28.7768 13.5639 28.7643H13.565Z" fill="white"/>
<path d="M14.4959 14.1665C14.4927 14.658 14.0917 15.0423 13.5827 15.0402C13.06 15.0381 12.6579 14.6237 12.6759 14.104C12.6928 13.6114 13.1012 13.2417 13.6144 13.2542C14.1086 13.2667 14.499 13.6708 14.4959 14.1665Z" fill="white"/>
<path d="M14.5001 18.724C14.4959 19.2176 14.098 19.6113 13.5975 19.6175C13.0769 19.6238 12.6653 19.2093 12.679 18.6907C12.6928 18.1929 13.096 17.8169 13.6049 17.8284C14.116 17.8388 14.5043 18.2272 14.5001 18.724Z" fill="white"/>
<path d="M13.6039 22.3928C14.1139 22.4032 14.4991 22.7937 14.4927 23.2946C14.4864 23.7883 14.0853 24.1871 13.5901 24.1902C13.0695 24.1944 12.6505 23.7695 12.6717 23.2603C12.6918 22.7698 13.1076 22.3824 13.6039 22.3928Z" fill="white"/>
</g>
<defs>
<clipPath id="clip0_1_171">
<rect width="40" height="40" fill="white"/>
</clipPath>
</defs>
</svg>
