<svg width="164" height="196" viewBox="0 0 164 196" fill="none" xmlns="http://www.w3.org/2000/svg">
<path d="M10.7018 163.196C11.3238 161.34 11.8069 159.429 12.5798 157.64C21.2757 137.52 32.5018 118.79 44.0842 100.26C47.9792 94.033 52.0674 87.9208 56.2221 81.8629C57.3755 80.1822 57.4782 79.1484 56.1315 77.4677C40.5998 58.0428 25.1647 38.5454 9.70537 19.0661C8.89618 18.0444 8.11717 16.9985 7 15.5475C8.16549 15.4326 8.97468 15.2815 9.78388 15.2815C19.9472 15.2634 30.1165 15.1908 40.2737 15.3601C41.5962 15.3843 43.281 16.3576 44.1506 17.4277C53.8187 29.2894 63.3539 41.2599 72.9314 53.1942C73.5474 53.968 74.2056 54.7056 75.051 55.7031C77.853 52.3357 80.498 49.0952 83.2094 45.9151C94.3268 32.8503 105.988 20.3418 120.221 10.5537C127.921 5.25165 136.061 0.989428 145.602 0.124891C157.185 -0.927064 163.682 4.68336 163.187 16.3153C162.662 28.7393 158.187 40.0387 151.647 50.5401C151.399 50.9391 151.013 51.2535 150.246 51.3684C150.989 49.5788 151.937 47.8377 152.438 45.9816C154.117 39.7969 155.717 33.5819 157.166 27.3367C157.523 25.8131 157.299 24.1203 157.148 22.5243C156.43 14.9369 151.798 11.1825 144.527 13.3771C138.833 15.1001 133.253 17.73 128.162 20.8436C114.647 29.102 103.494 40.214 92.8534 51.8037C68.6077 78.2174 47.8826 107.309 28.3471 137.296C23.2383 145.137 18.2744 153.081 13.2381 160.971C12.6765 161.854 12.0605 162.7 11.4687 163.565C11.2151 163.444 10.9614 163.323 10.7078 163.196H10.7018Z" fill="#C1BBEB"/>
<path d="M87.1894 69.8422C105.322 92.679 123.027 114.978 141.159 137.821C137.823 137.821 135.161 137.821 132.499 137.821C124.279 137.821 116.059 137.881 107.845 137.754C106.629 137.736 105.009 137.162 104.286 136.267C92.8923 122.104 81.613 107.851 70.3157 93.6099C70.0688 93.3016 69.8941 92.9389 69.4846 92.2559C75.2598 84.9418 81.0891 77.5613 87.1834 69.8362L87.1894 69.8422Z" fill="#C1BBEB"/>
<g filter="url(#filter0_d_1_7602)">
<path d="M20.1374 187L16.4414 180.472H14.8574V187H11.4974V170.248H17.7854C19.0814 170.248 20.1854 170.48 21.0974 170.944C22.0094 171.392 22.6894 172.008 23.1374 172.792C23.6014 173.56 23.8334 174.424 23.8334 175.384C23.8334 176.488 23.5134 177.488 22.8734 178.384C22.2334 179.264 21.2814 179.872 20.0174 180.208L24.0254 187H20.1374ZM14.8574 177.952H17.6654C18.5774 177.952 19.2574 177.736 19.7054 177.304C20.1534 176.856 20.3774 176.24 20.3774 175.456C20.3774 174.688 20.1534 174.096 19.7054 173.68C19.2574 173.248 18.5774 173.032 17.6654 173.032H14.8574V177.952ZM51.4724 180.064C51.4724 180.544 51.4404 180.976 51.3764 181.36H41.6564C41.7364 182.32 42.0724 183.072 42.6644 183.616C43.2564 184.16 43.9844 184.432 44.8484 184.432C46.0964 184.432 46.9844 183.896 47.5124 182.824H51.1364C50.7524 184.104 50.0164 185.16 48.9284 185.992C47.8404 186.808 46.5044 187.216 44.9204 187.216C43.6404 187.216 42.4884 186.936 41.4644 186.376C40.4564 185.8 39.6644 184.992 39.0884 183.952C38.5284 182.912 38.2484 181.712 38.2484 180.352C38.2484 178.976 38.5284 177.768 39.0884 176.728C39.6484 175.688 40.4324 174.888 41.4404 174.328C42.4484 173.768 43.6084 173.488 44.9204 173.488C46.1844 173.488 47.3124 173.76 48.3044 174.304C49.3124 174.848 50.0884 175.624 50.6324 176.632C51.1924 177.624 51.4724 178.768 51.4724 180.064ZM47.9924 179.104C47.9764 178.24 47.6644 177.552 47.0564 177.04C46.4484 176.512 45.7044 176.248 44.8244 176.248C43.9924 176.248 43.2884 176.504 42.7124 177.016C42.1524 177.512 41.8084 178.208 41.6804 179.104H47.9924ZM71.2529 187.216C70.1649 187.216 69.1889 187.024 68.3249 186.64C67.4609 186.24 66.7729 185.704 66.2609 185.032C65.7649 184.36 65.4929 183.616 65.4449 182.8H68.8289C68.8929 183.312 69.1409 183.736 69.5729 184.072C70.0209 184.408 70.5729 184.576 71.2289 184.576C71.8689 184.576 72.3649 184.448 72.7169 184.192C73.0849 183.936 73.2689 183.608 73.2689 183.208C73.2689 182.776 73.0449 182.456 72.5969 182.248C72.1649 182.024 71.4689 181.784 70.5089 181.528C69.5169 181.288 68.7009 181.04 68.0609 180.784C67.4369 180.528 66.8929 180.136 66.4289 179.608C65.9809 179.08 65.7569 178.368 65.7569 177.472C65.7569 176.736 65.9649 176.064 66.3809 175.456C66.8129 174.848 67.4209 174.368 68.2049 174.016C69.0049 173.664 69.9409 173.488 71.0129 173.488C72.5969 173.488 73.8609 173.888 74.8049 174.688C75.7489 175.472 76.2689 176.536 76.3649 177.88H73.1489C73.1009 177.352 72.8769 176.936 72.4769 176.632C72.0929 176.312 71.5729 176.152 70.9169 176.152C70.3089 176.152 69.8369 176.264 69.5009 176.488C69.1809 176.712 69.0209 177.024 69.0209 177.424C69.0209 177.872 69.2449 178.216 69.6929 178.456C70.1409 178.68 70.8369 178.912 71.7809 179.152C72.7409 179.392 73.5329 179.64 74.1569 179.896C74.7809 180.152 75.3169 180.552 75.7649 181.096C76.2289 181.624 76.4689 182.328 76.4849 183.208C76.4849 183.976 76.2689 184.664 75.8369 185.272C75.4209 185.88 74.8129 186.36 74.0129 186.712C73.2289 187.048 72.3089 187.216 71.2529 187.216ZM104.035 173.704V187H100.651V185.32C100.219 185.896 99.651 186.352 98.947 186.688C98.259 187.008 97.507 187.168 96.691 187.168C95.651 187.168 94.731 186.952 93.931 186.52C93.131 186.072 92.499 185.424 92.035 184.576C91.587 183.712 91.363 182.688 91.363 181.504V173.704H94.723V181.024C94.723 182.08 94.987 182.896 95.515 183.472C96.043 184.032 96.763 184.312 97.675 184.312C98.603 184.312 99.331 184.032 99.859 183.472C100.387 182.896 100.651 182.08 100.651 181.024V173.704H104.035ZM122.95 169.24V187H119.59V169.24H122.95ZM142.422 176.464V182.896C142.422 183.344 142.526 183.672 142.734 183.88C142.958 184.072 143.326 184.168 143.838 184.168H145.398V187H143.286C140.454 187 139.038 185.624 139.038 182.872V176.464H137.454V173.704H139.038V170.416H142.422V173.704H145.398V176.464H142.422Z" fill="#C1BBEB"/>
</g>
<defs>
<filter id="filter0_d_1_7602" x="7.49731" y="169.24" width="141.901" height="25.9761" filterUnits="userSpaceOnUse" color-interpolation-filters="sRGB">
<feFlood flood-opacity="0" result="BackgroundImageFix"/>
<feColorMatrix in="SourceAlpha" type="matrix" values="0 0 0 0 0 0 0 0 0 0 0 0 0 0 0 0 0 0 127 0" result="hardAlpha"/>
<feOffset dy="4"/>
<feGaussianBlur stdDeviation="2"/>
<feComposite in2="hardAlpha" operator="out"/>
<feColorMatrix type="matrix" values="0 0 0 0 0.372549 0 0 0 0 0.196078 0 0 0 0 0.576471 0 0 0 0.25 0"/>
<feBlend mode="normal" in2="BackgroundImageFix" result="effect1_dropShadow_1_7602"/>
<feBlend mode="normal" in="SourceGraphic" in2="effect1_dropShadow_1_7602" result="shape"/>
</filter>
</defs>
</svg>
