<svg width="61" height="76" viewBox="0 0 61 76" fill="none" xmlns="http://www.w3.org/2000/svg">
<path d="M4.18251 57.7236C4.40252 57.0671 4.57339 56.3914 4.8468 55.7584C7.92258 48.6418 11.8933 42.017 15.9901 35.4627C17.3678 33.2602 18.8139 31.0982 20.2834 28.9555C20.6914 28.361 20.7277 27.9954 20.2514 27.4009C14.7577 20.5302 9.29814 13.6338 3.83008 6.74382C3.54386 6.38243 3.26832 6.01249 2.87317 5.49927C3.28541 5.45864 3.57163 5.40518 3.85785 5.40518C7.45267 5.39876 11.0496 5.3731 14.6423 5.43298C15.1101 5.44153 15.706 5.78581 16.0136 6.16431C19.4333 10.3599 22.806 14.5939 26.1936 18.8152C26.4115 19.0889 26.6443 19.3498 26.9433 19.7026C27.9344 18.5115 28.87 17.3653 29.829 16.2405C33.7613 11.6194 37.8859 7.19503 42.9203 3.73294C45.6437 1.85755 48.5229 0.349968 51.8978 0.0441747C55.9945 -0.327909 58.2928 1.65654 58.1177 5.77085C57.9319 10.1653 56.3491 14.162 54.0359 17.8764C53.9483 18.0175 53.8116 18.1287 53.5403 18.1694C53.803 17.5364 54.1384 16.9205 54.3157 16.264C54.9095 14.0764 55.4755 11.8782 55.9881 9.66917C56.1142 9.13029 56.0351 8.53154 55.9817 7.967C55.7275 5.28329 54.0893 3.95533 51.5176 4.73158C49.5034 5.34102 47.5297 6.27123 45.7291 7.37252C40.9488 10.2936 37.0037 14.224 33.2401 18.3233C24.6643 27.6661 17.3336 37.9561 10.4238 48.5626C8.61677 51.3362 6.86101 54.146 5.07962 56.9367C4.88097 57.2489 4.66311 57.5483 4.45378 57.854C4.36407 57.8113 4.27436 57.7685 4.18465 57.7236H4.18251Z" fill="#5F3293"/>
<path d="M31.2368 24.7043C37.6504 32.7818 43.9127 40.6691 50.3263 48.7487C49.1462 48.7487 48.2047 48.7487 47.2633 48.7487C44.3557 48.7487 41.4482 48.7701 38.5429 48.7252C38.1126 48.7188 37.5396 48.5157 37.284 48.1993C33.254 43.1898 29.2644 38.1483 25.2684 33.1111C25.1811 33.002 25.1193 32.8738 24.9745 32.6322C27.0172 30.0451 29.0791 27.4346 31.2347 24.7021L31.2368 24.7043Z" fill="#5F3293"/>
<g filter="url(#filter0_d_1_8711)">
<path d="M8.80153 67.8545L7.41553 65.4065H6.82153V67.8545H5.56153V61.5725H7.91953C8.40553 61.5725 8.81953 61.6595 9.16153 61.8335C9.50353 62.0015 9.75853 62.2325 9.92653 62.5265C10.1005 62.8145 10.1875 63.1385 10.1875 63.4985C10.1875 63.9125 10.0675 64.2875 9.82753 64.6235C9.58753 64.9535 9.23053 65.1815 8.75653 65.3075L10.2595 67.8545H8.80153ZM6.82153 64.4615H7.87453C8.21653 64.4615 8.47153 64.3805 8.63953 64.2185C8.80753 64.0505 8.89153 63.8195 8.89153 63.5255C8.89153 63.2375 8.80753 63.0155 8.63953 62.8595C8.47153 62.6975 8.21653 62.6165 7.87453 62.6165H6.82153V64.4615ZM20.5522 65.2535C20.5522 65.4335 20.5402 65.5955 20.5162 65.7395H16.8712C16.9012 66.0995 17.0272 66.3815 17.2492 66.5855C17.4712 66.7895 17.7442 66.8915 18.0682 66.8915C18.5362 66.8915 18.8692 66.6905 19.0672 66.2885H20.4262C20.2822 66.7685 20.0062 67.1645 19.5982 67.4765C19.1902 67.7825 18.6892 67.9355 18.0952 67.9355C17.6152 67.9355 17.1832 67.8305 16.7992 67.6205C16.4212 67.4045 16.1242 67.1015 15.9082 66.7115C15.6982 66.3215 15.5932 65.8715 15.5932 65.3615C15.5932 64.8455 15.6982 64.3925 15.9082 64.0025C16.1182 63.6125 16.4122 63.3125 16.7902 63.1025C17.1682 62.8925 17.6032 62.7875 18.0952 62.7875C18.5692 62.7875 18.9922 62.8895 19.3642 63.0935C19.7422 63.2975 20.0332 63.5885 20.2372 63.9665C20.4472 64.3385 20.5522 64.7675 20.5522 65.2535ZM19.2472 64.8935C19.2412 64.5695 19.1242 64.3115 18.8962 64.1195C18.6682 63.9215 18.3892 63.8225 18.0592 63.8225C17.7472 63.8225 17.4832 63.9185 17.2672 64.1105C17.0572 64.2965 16.9282 64.5575 16.8802 64.8935H19.2472ZM27.9698 67.9355C27.5618 67.9355 27.1958 67.8635 26.8718 67.7195C26.5478 67.5695 26.2898 67.3685 26.0978 67.1165C25.9118 66.8645 25.8098 66.5855 25.7918 66.2795H27.0608C27.0848 66.4715 27.1778 66.6305 27.3398 66.7565C27.5078 66.8825 27.7148 66.9455 27.9608 66.9455C28.2008 66.9455 28.3868 66.8975 28.5188 66.8015C28.6568 66.7055 28.7258 66.5825 28.7258 66.4325C28.7258 66.2705 28.6418 66.1505 28.4738 66.0725C28.3118 65.9885 28.0508 65.8985 27.6908 65.8025C27.3188 65.7125 27.0128 65.6195 26.7728 65.5235C26.5388 65.4275 26.3348 65.2805 26.1608 65.0825C25.9928 64.8845 25.9088 64.6175 25.9088 64.2815C25.9088 64.0055 25.9868 63.7535 26.1428 63.5255C26.3048 63.2975 26.5328 63.1175 26.8268 62.9855C27.1268 62.8535 27.4778 62.7875 27.8798 62.7875C28.4738 62.7875 28.9478 62.9375 29.3018 63.2375C29.6558 63.5315 29.8508 63.9305 29.8868 64.4345H28.6808C28.6628 64.2365 28.5788 64.0805 28.4288 63.9665C28.2848 63.8465 28.0898 63.7865 27.8438 63.7865C27.6158 63.7865 27.4388 63.8285 27.3128 63.9125C27.1928 63.9965 27.1328 64.1135 27.1328 64.2635C27.1328 64.4315 27.2168 64.5605 27.3848 64.6505C27.5528 64.7345 27.8138 64.8215 28.1678 64.9115C28.5278 65.0015 28.8248 65.0945 29.0588 65.1905C29.2928 65.2865 29.4938 65.4365 29.6618 65.6405C29.8358 65.8385 29.9258 66.1025 29.9318 66.4325C29.9318 66.7205 29.8508 66.9785 29.6888 67.2065C29.5328 67.4345 29.3048 67.6145 29.0048 67.7465C28.7108 67.8725 28.3658 67.9355 27.9698 67.9355ZM40.2631 62.8685V67.8545H38.9941V67.2245C38.8321 67.4405 38.6191 67.6115 38.3551 67.7375C38.0971 67.8575 37.8151 67.9175 37.5091 67.9175C37.1191 67.9175 36.7741 67.8365 36.4741 67.6745C36.1741 67.5065 35.9371 67.2635 35.7631 66.9455C35.5951 66.6215 35.5111 66.2375 35.5111 65.7935V62.8685H36.7711V65.6135C36.7711 66.0095 36.8701 66.3155 37.0681 66.5315C37.2661 66.7415 37.5361 66.8465 37.8781 66.8465C38.2261 66.8465 38.4991 66.7415 38.6971 66.5315C38.8951 66.3155 38.9941 66.0095 38.9941 65.6135V62.8685H40.2631ZM47.3563 61.1945V67.8545H46.0963V61.1945H47.3563ZM54.6582 63.9035V66.3155C54.6582 66.4835 54.6972 66.6065 54.7752 66.6845C54.8592 66.7565 54.9972 66.7925 55.1892 66.7925H55.7742V67.8545H54.9822C53.9202 67.8545 53.3892 67.3385 53.3892 66.3065V63.9035H52.7952V62.8685H53.3892V61.6355H54.6582V62.8685H55.7742V63.9035H54.6582Z" fill="#5F3293"/>
</g>
<defs>
<filter id="filter0_d_1_8711" x="1.56152" y="61.1943" width="58.2126" height="14.7412" filterUnits="userSpaceOnUse" color-interpolation-filters="sRGB">
<feFlood flood-opacity="0" result="BackgroundImageFix"/>
<feColorMatrix in="SourceAlpha" type="matrix" values="0 0 0 0 0 0 0 0 0 0 0 0 0 0 0 0 0 0 127 0" result="hardAlpha"/>
<feOffset dy="4"/>
<feGaussianBlur stdDeviation="2"/>
<feComposite in2="hardAlpha" operator="out"/>
<feColorMatrix type="matrix" values="0 0 0 0 0.372549 0 0 0 0 0.196078 0 0 0 0 0.576471 0 0 0 0.25 0"/>
<feBlend mode="normal" in2="BackgroundImageFix" result="effect1_dropShadow_1_8711"/>
<feBlend mode="normal" in="SourceGraphic" in2="effect1_dropShadow_1_8711" result="shape"/>
</filter>
</defs>
</svg>
