<svg width="592" height="361" viewBox="0 0 592 361" fill="none" xmlns="http://www.w3.org/2000/svg">
<g clip-path="url(#clip0_1_8618)">
<path d="M200.556 50.3856C200.556 50.3856 201.146 70.4568 190.418 83.0734L219.638 83.5695C219.638 83.5695 229.669 68.8613 224.801 49.9834L200.556 50.3856Z" fill="black"/>
<path d="M211.19 52.3024C209.97 52.3024 208.978 51.3103 208.978 50.0902C208.978 48.8701 209.97 47.8779 211.19 47.8779C212.41 47.8779 213.403 48.8701 213.403 50.0902C213.403 51.3103 212.41 52.3024 211.19 52.3024Z" fill="#7600FF"/>
<path d="M211.19 48.5488C212.035 48.5488 212.732 49.246 212.732 50.0906C212.732 50.9353 212.035 51.6325 211.19 51.6325C210.345 51.6325 209.648 50.9353 209.648 50.0906C209.648 49.246 210.345 48.5488 211.19 48.5488ZM211.19 47.208C209.594 47.208 208.307 48.4951 208.307 50.0906C208.307 51.6862 209.594 52.9733 211.19 52.9733C212.786 52.9733 214.073 51.6862 214.073 50.0906C214.073 48.4951 212.786 47.208 211.19 47.208Z" fill="black"/>
<path d="M117.516 84.6588L99.0911 77.3574L90.6818 98.5718L109.107 105.873L117.516 84.6588Z" fill="black"/>
<path d="M114.789 86.4469L100.39 80.7412L95.3656 93.4175L109.764 99.1232L114.789 86.4469Z" fill="#7600FF"/>
<path d="M140.618 56.2071L119.563 55.5234L118.775 79.765L139.831 80.4487L140.618 56.2071Z" fill="black"/>
<path d="M138.53 58.9582L122.071 58.4238L121.601 72.9098L138.059 73.4442L138.53 58.9582Z" fill="#7600FF"/>
<path d="M436.085 0.669922H257.024C250.707 0.669922 245.586 5.7903 245.586 12.1066V128.887C245.586 135.203 250.707 140.324 257.024 140.324H436.085C442.402 140.324 447.523 135.203 447.523 128.887V12.1066C447.523 5.7903 442.402 0.669922 436.085 0.669922Z" fill="#7600FF" stroke="black" stroke-linecap="round" stroke-linejoin="round"/>
<path d="M326.366 140.766C326.836 141.544 314.539 181.646 314.539 181.646H367.159L355.023 140.149L326.38 140.766H326.366Z" fill="#7600FF" stroke="black" stroke-linecap="round" stroke-linejoin="round"/>
<path d="M436.085 0.669922H257.038C250.722 0.669922 245.586 5.79163 245.586 12.1066V21.9478H447.523V12.1066C447.523 5.79163 442.401 0.669922 436.071 0.669922H436.085Z" stroke="black" stroke-linecap="round" stroke-linejoin="round"/>
<path d="M253.511 11.9595C253.511 10.3506 254.812 9.06348 256.407 9.06348C258.003 9.06348 259.304 10.364 259.304 11.9595C259.304 13.555 258.003 14.8556 256.407 14.8556C254.812 14.8556 253.511 13.555 253.511 11.9595Z" fill="black"/>
<path d="M269.469 11.9595C269.469 10.3506 270.769 9.06348 272.365 9.06348C273.961 9.06348 275.262 10.364 275.262 11.9595C275.262 13.555 273.961 14.8556 272.365 14.8556C270.769 14.8556 269.469 13.555 269.469 11.9595Z" fill="black"/>
<path d="M285.426 11.9595C285.426 10.3506 286.727 9.06348 288.323 9.06348C289.919 9.06348 291.219 10.364 291.219 11.9595C291.219 13.555 289.919 14.8556 288.323 14.8556C286.727 14.8556 285.426 13.555 285.426 11.9595Z" fill="black"/>
<path d="M245.586 108.467V128.873C245.586 135.188 250.708 140.31 257.038 140.31H436.085C442.401 140.31 447.537 135.188 447.537 128.873V108.467H245.599H245.586Z" stroke="black" stroke-miterlimit="10"/>
<path d="M389.928 91.8199L430.774 80.9159L394.13 79.9779V52.3855C394.13 46.3668 390.557 41.4424 386.126 41.4424H292.571C288.169 41.4424 284.568 46.3277 284.568 52.3855V82.2447C284.568 88.2634 288.141 93.1878 292.571 93.1878C292.571 93.1878 388.785 92.6797 389.928 91.8199Z" fill="#7600FF" stroke="black" stroke-linecap="round" stroke-linejoin="round"/>
<path d="M131.992 181.633H490.81C496.59 181.633 501.283 186.325 501.283 192.104H121.519C121.519 186.325 126.212 181.633 131.992 181.633Z" fill="black"/>
<path d="M420.181 191.205L476.555 360.329H487.726L430.546 189.342L420.181 191.205Z" fill="black"/>
<path d="M202.634 191.205L146.26 360.329H135.09L192.255 189.342L202.634 191.205Z" fill="black"/>
<path d="M455.596 268.514H165.289" stroke="black" stroke-linecap="round" stroke-linejoin="round"/>
<path d="M384.404 347.539C386.12 347.029 387.381 345.46 387.381 343.583C387.381 341.291 385.53 339.44 383.237 339.44C381.078 339.44 379.322 341.103 379.134 343.221C377.471 342.471 375.634 343.999 373.676 343.999C372.174 343.999 370.726 342.296 369.385 342.766C369.009 340.875 367.333 339.44 365.322 339.44C363.029 339.44 361.178 341.291 361.178 343.583C361.178 345.112 362.01 346.426 363.243 347.15C361.5 349.389 360.441 352.204 360.441 355.261C360.441 355.838 360.494 356.401 360.575 356.964H333.433V360.329H386.818V356.964H386.777C386.858 356.401 386.911 355.838 386.911 355.261C386.911 352.379 385.973 349.711 384.404 347.539Z" fill="#7600FF" stroke="black" stroke-linecap="round" stroke-linejoin="round"/>
<path d="M272.888 273.274C273.103 273.73 275.275 307.651 275.275 307.651L282.597 308.375L291.152 273.676L272.888 273.261V273.274Z" fill="#7600FF" stroke="black" stroke-linecap="round" stroke-linejoin="round"/>
<path d="M302.054 317.868C297.897 317.224 293.955 315.602 290.509 313.122C288.819 311.915 287.263 310.507 285.896 308.938C285.346 308.308 284.836 307.558 284.286 306.847L274.417 305.868C274.068 306.525 274.135 307.33 274.162 308.054C274.229 310.025 274.363 311.995 274.618 313.953C274.792 315.294 274.993 316.822 276.2 317.586C276.965 318.082 277.796 318.042 278.668 318.069C279.633 318.109 280.572 318.391 281.484 318.686C284.876 319.812 288.256 320.63 291.836 320.804C293.848 320.912 295.859 320.831 297.857 320.59C298.823 320.469 299.788 320.335 300.727 320.107C301.491 319.933 302.269 319.651 302.644 318.874C302.872 318.418 302.524 317.922 302.068 317.855L302.054 317.868Z" fill="black"/>
<path d="M274.833 291.441C275.101 291.884 280.612 325.416 280.612 325.416H287.974L293.056 290.047L274.846 291.441H274.833Z" fill="#7600FF" stroke="black" stroke-linecap="round" stroke-linejoin="round"/>
<path d="M308.277 332.924C304.079 332.696 299.989 331.476 296.315 329.358C294.518 328.325 292.829 327.078 291.313 325.644C290.71 325.067 290.12 324.384 289.503 323.727H279.593C279.311 324.41 279.459 325.215 279.553 325.925C279.808 327.883 280.143 329.827 280.585 331.744C280.894 333.058 281.242 334.56 282.516 335.203C283.321 335.619 284.152 335.498 285.011 335.445C285.976 335.391 286.928 335.565 287.867 335.78C291.353 336.571 294.8 337.04 298.38 336.866C300.392 336.772 302.376 336.491 304.347 336.048C305.286 335.834 306.238 335.592 307.164 335.284C307.901 335.029 308.652 334.667 308.947 333.876C309.121 333.407 308.732 332.951 308.263 332.924H308.277Z" fill="black"/>
<path d="M354.581 347.539C356.297 347.029 357.558 345.46 357.558 343.583C357.558 341.291 355.707 339.44 353.414 339.44C351.255 339.44 349.498 341.103 349.31 343.221C347.648 342.471 345.811 342.042 343.853 342.042C342.351 342.042 340.903 342.31 339.562 342.766C339.186 340.875 337.51 339.44 335.498 339.44C333.205 339.44 331.355 341.291 331.355 343.583C331.355 345.112 332.186 346.426 333.42 347.15C331.677 349.389 330.617 352.204 330.617 355.261C330.617 355.838 330.671 356.401 330.751 356.964H303.61V360.329H356.994V356.964H356.954C357.035 356.401 357.088 355.838 357.088 355.261C357.088 352.379 356.149 349.711 354.581 347.539Z" fill="black"/>
<path d="M176.633 129.906L188.286 133.634L187.87 153.611L170.103 160.824L176.633 129.906Z" fill="#7600FF"/>
<path d="M177.129 130.777L187.602 134.116L187.2 153.155L171.014 159.724L177.129 130.777ZM176.124 129.048L169.191 161.923L188.528 154.08L188.97 133.151L176.124 129.048Z" fill="black"/>
<path d="M196.024 134.733C190.955 134.733 186.248 133.983 182.037 132.508C180.093 131.824 178.229 130.872 176.325 129.598C167.501 125.388 162.325 116.11 163.344 106.457C164.484 95.8112 173.039 87.3107 183.7 86.2515C184.478 86.1711 185.269 86.1309 186.034 86.1309C195.031 86.1309 203.211 91.4537 206.886 99.6994C210.198 105.867 211.901 114.287 211.955 124.772C211.981 129.464 208.495 133.5 203.842 134.157C201.2 134.532 198.572 134.72 196.024 134.72V134.733Z" fill="#7600FF"/>
<path d="M186.033 86.8144C194.763 86.8144 202.715 91.9763 206.269 99.9807C206.282 100.007 206.296 100.034 206.309 100.075C209.541 106.095 211.217 114.407 211.271 124.785C211.297 129.142 208.052 132.896 203.734 133.513C201.133 133.889 198.531 134.076 196.01 134.076C191.022 134.076 186.382 133.339 182.238 131.891C180.348 131.234 178.537 130.309 176.687 129.062C176.633 129.022 176.58 128.995 176.513 128.968C168.024 124.919 162.995 115.922 164.001 106.55C165.101 96.2131 173.415 87.9674 183.754 86.9485C184.505 86.868 185.269 86.8412 186.02 86.8412M186.033 85.4736C185.242 85.4736 184.438 85.5139 183.633 85.5943C172.718 86.6803 163.84 95.4757 162.674 106.39C161.561 116.821 167.313 126.032 175.949 130.148C177.76 131.368 179.704 132.387 181.809 133.138C186.65 134.827 191.572 135.404 196.024 135.404C198.92 135.404 201.602 135.162 203.935 134.827C208.924 134.116 212.652 129.813 212.625 124.771C212.558 112.115 210.091 104.271 207.502 99.431C203.842 91.2121 195.621 85.4736 186.033 85.4736Z" fill="black"/>
<path d="M166.415 96.4272C165.128 90.3535 160.528 85.3257 154.802 83.0062C148.044 80.2576 140.159 81.1693 133.963 84.91C127.889 88.5837 123.732 94.5099 121.519 101.173C118.944 108.91 118.261 117.088 116.826 125.066C116.088 129.182 114.975 133.338 112.655 136.878C110.671 139.895 107.774 142.643 104.18 143.542C103.537 143.702 103.362 144.426 103.979 144.762C109.92 147.939 116.544 150.004 123.168 151.103C126.534 151.667 129.94 151.962 133.346 152.002C134.594 152.002 136.458 152.27 137.343 151.157C137.785 150.607 137.812 149.883 137.852 149.213C137.919 148.248 137.986 147.282 138.053 146.33C139.126 132.909 142.224 118.965 151.208 108.494C153.475 105.853 156.13 103.346 159.335 101.924C160.957 101.2 162.633 101.12 164.31 100.651C165.932 100.208 167.407 99.1489 167.555 97.3523C167.608 96.7222 167.005 96.4138 166.402 96.4272H166.415Z" fill="black"/>
<path d="M209.165 103.104C208.629 101.723 208.066 100.503 207.489 99.4304C203.533 90.5278 194.213 84.5346 183.62 85.5938C172.704 86.6798 163.827 95.4752 162.66 106.389C161.963 112.959 163.974 119.032 167.716 123.658C189.587 119.743 186.57 91.6808 186.69 91.8015C193.623 98.7332 203.506 101.817 209.152 103.104H209.165Z" fill="black"/>
<path d="M174.394 121.432C178.504 121.432 181.836 118.101 181.836 113.991C181.836 109.881 178.504 106.55 174.394 106.55C170.284 106.55 166.951 109.881 166.951 113.991C166.951 118.101 170.284 121.432 174.394 121.432Z" fill="#7600FF"/>
<path d="M203.318 222.834C203.318 222.834 276.643 195.054 286.217 199.947C295.792 204.855 292.52 253.645 292.52 253.645L203.318 222.821V222.834Z" fill="black"/>
<path d="M160.112 220.541C160.112 220.541 163.304 264.29 196.895 274.091C230.487 283.892 269.884 265.913 269.884 265.913V292.245L298.943 289.698C298.943 289.698 291.675 239.406 287.317 232.326C282.959 225.247 199.671 223.303 199.671 223.303L192.376 217.082L160.085 220.541H160.112Z" fill="#7600FF" stroke="#CEBAF4" stroke-miterlimit="10"/>
<path d="M179.127 241.002C179.127 234.66 173.965 229.498 167.622 229.498C165.53 229.498 163.572 230.061 161.882 231.04C162.083 231.911 162.325 232.823 162.58 233.762C164.014 232.756 165.744 232.166 167.622 232.166C172.489 232.166 176.445 236.121 176.445 240.988C176.445 245.467 173.093 249.167 168.762 249.73C169.204 250.561 169.66 251.379 170.143 252.211C175.279 251.057 179.141 246.472 179.141 240.988L179.127 241.002Z" fill="#CEBAF4"/>
<path d="M214.77 240.492C221.113 240.492 226.276 235.33 226.276 228.988C226.276 227.299 225.901 225.703 225.243 224.255C224.184 224.202 223.138 224.162 222.119 224.108C223.058 225.502 223.594 227.192 223.594 228.988C223.594 233.855 219.638 237.81 214.77 237.81C209.903 237.81 205.947 233.855 205.947 228.988C205.947 226.937 206.658 225.046 207.838 223.545C206.684 223.505 205.625 223.478 204.7 223.438C203.788 225.087 203.278 226.964 203.278 228.975C203.278 235.317 208.441 240.479 214.784 240.479L214.77 240.492Z" fill="#CEBAF4"/>
<path d="M231.64 243.24C227.107 243.24 223.42 246.927 223.42 251.459C223.42 255.991 227.107 259.678 231.64 259.678C236.172 259.678 239.86 255.991 239.86 251.459C239.86 246.927 236.172 243.24 231.64 243.24ZM231.64 256.983C228.582 256.983 226.102 254.503 226.102 251.446C226.102 248.389 228.582 245.908 231.64 245.908C234.697 245.908 237.178 248.389 237.178 251.446C237.178 254.503 234.697 256.983 231.64 256.983Z" fill="#CEBAF4"/>
<path d="M283.576 269.747C279.043 269.747 275.355 273.434 275.355 277.966C275.355 282.498 279.043 286.185 283.576 286.185C288.108 286.185 291.796 282.498 291.796 277.966C291.796 273.434 288.108 269.747 283.576 269.747ZM283.576 283.503C280.518 283.503 278.037 281.023 278.037 277.966C278.037 274.909 280.518 272.429 283.576 272.429C286.633 272.429 289.114 274.909 289.114 277.966C289.114 281.023 286.633 283.503 283.576 283.503Z" fill="#CEBAF4"/>
<path d="M196.587 236.188C191.692 236.188 187.696 240.372 187.696 245.507C187.696 250.642 191.679 254.825 196.587 254.825C201.495 254.825 205.477 250.642 205.477 245.507C205.477 240.372 201.495 236.188 196.587 236.188ZM196.587 252.13C193.167 252.13 190.378 249.154 190.378 245.493C190.378 241.833 193.167 238.857 196.587 238.857C200.006 238.857 202.795 241.833 202.795 245.493C202.795 249.154 200.006 252.13 196.587 252.13Z" fill="#CEBAF4"/>
<path d="M203.439 259.531C197.096 259.531 191.934 264.693 191.934 271.035C191.934 271.464 191.96 271.893 192.014 272.322C192.966 272.724 193.958 273.113 194.964 273.448C194.75 272.684 194.616 271.866 194.616 271.035C194.616 266.168 198.571 262.213 203.439 262.213C208.307 262.213 212.263 266.168 212.263 271.035C212.263 273.153 211.512 275.084 210.278 276.613C211.311 276.706 212.33 276.8 213.349 276.854C214.355 275.151 214.945 273.167 214.945 271.035C214.945 264.693 209.782 259.531 203.439 259.531Z" fill="#CEBAF4"/>
<path d="M243.923 234.07C243.923 240.411 249.086 245.573 255.429 245.573C261.771 245.573 266.934 240.411 266.934 234.07C266.934 231.428 266.022 228.988 264.52 227.044C263.086 226.883 261.597 226.736 260.095 226.588C262.589 228.143 264.252 230.919 264.252 234.07C264.252 238.936 260.296 242.892 255.429 242.892C250.561 242.892 246.605 238.936 246.605 234.07C246.605 230.382 248.885 227.218 252.116 225.891C250.655 225.77 249.193 225.663 247.718 225.556C245.398 227.661 243.937 230.691 243.937 234.056L243.923 234.07Z" fill="#CEBAF4"/>
<path d="M254.973 257.68C248.63 257.68 243.467 262.842 243.467 269.184C243.467 270.9 243.856 272.536 244.54 273.997C245.452 273.796 246.337 273.595 247.209 273.381C246.525 272.134 246.149 270.699 246.149 269.184C246.149 264.317 250.105 260.362 254.973 260.362C259.559 260.362 263.341 263.888 263.756 268.366C264.722 268.018 265.58 267.682 266.331 267.388C265.473 261.89 260.712 257.667 254.973 257.667V257.68Z" fill="#CEBAF4"/>
<path d="M278.359 254.637C278.359 260.978 283.522 266.14 289.865 266.14C291.702 266.14 293.445 265.698 294.987 264.92C294.827 263.995 294.666 263.07 294.491 262.131C293.137 262.963 291.555 263.459 289.865 263.459C284.997 263.459 281.041 259.504 281.041 254.637C281.041 249.77 284.997 245.814 289.865 245.814C290.374 245.814 290.857 245.868 291.34 245.948C291.125 244.996 290.924 244.071 290.71 243.173C290.428 243.146 290.147 243.133 289.851 243.133C283.509 243.133 278.346 248.295 278.346 254.637H278.359Z" fill="#CEBAF4"/>
<path d="M274.94 152.604C274.94 152.604 283.817 146.263 282.986 145.23C282.061 144.104 274.484 149.976 273.505 150.741C274.551 149.923 282.785 143.353 281.645 142.106C280.452 140.819 271.749 148.797 271.749 148.797C278.373 142.669 279.714 140.47 278.976 139.572C278.319 138.768 267.069 149.816 266.251 150.003C265.419 150.191 265.795 142.2 264.145 142.428C262.496 142.656 260.914 155.232 260.914 155.232L209.97 181.283L202.702 163.022L177.371 170.571C177.371 170.571 187.147 210.431 197.794 211.893C205.893 213.006 275.718 155.058 276.16 154.723C276.871 154.16 284.086 151.223 282.637 150.325C281.189 149.427 274.954 152.591 274.954 152.591L274.94 152.604Z" fill="#7600FF" stroke="black" stroke-linecap="round" stroke-linejoin="round"/>
<path d="M285.614 148.81L247.531 145.324L248.308 179.54L282.718 181.659L285.614 148.81Z" fill="black"/>
<path d="M261.986 145.887L263.153 134.33C270.059 138.956 279.218 145.15 283.201 147.899L261.986 145.874V145.887Z" fill="#7600FF"/>
<path d="M263.716 135.51C269.402 139.331 276.375 144.037 280.693 146.987L262.724 145.271L263.716 135.497M262.603 133.15L261.249 146.491L285.601 148.81C284.635 147.939 262.59 133.15 262.59 133.15H262.603Z" fill="black"/>
<path d="M228.328 223.974L160.112 220.542C160.112 220.542 147.44 163.787 172.946 146.196L189.842 142.67C198.639 140.833 226.665 208.864 228.328 223.974Z" fill="black"/>
<path d="M274.94 164.001C274.94 164.001 283.817 157.659 282.986 156.627C282.061 155.5 274.484 161.373 273.505 162.137C274.551 161.319 282.785 154.75 281.645 153.503C280.452 152.216 271.749 160.193 271.749 160.193C278.373 154.066 279.714 151.867 278.976 150.969C278.319 150.164 267.069 161.212 266.251 161.4C265.419 161.587 265.795 153.597 264.145 153.824C262.496 154.052 260.914 166.629 260.914 166.629L209.97 192.68L202.702 174.419L177.371 181.967C177.371 181.967 187.147 221.828 197.794 223.289C205.893 224.402 275.718 166.454 276.16 166.119C276.871 165.556 284.086 162.62 282.637 161.722C281.189 160.823 274.954 163.987 274.954 163.987L274.94 164.001Z" fill="#7600FF" stroke="black" stroke-linecap="round" stroke-linejoin="round"/>
<path d="M200.945 158.344L204.659 175.036L176.593 183.175L172.838 167.005" stroke="#7600FF" stroke-linecap="round" stroke-linejoin="round"/>
<path d="M163.291 309.246L131.831 360.329H145.818L185.926 306.967L163.291 309.246Z" fill="#7600FF" stroke="black" stroke-linecap="round" stroke-linejoin="round"/>
<path d="M262.603 307.289L292.359 360.33H277.837L239.968 308.925L262.603 307.289Z" fill="#7600FF" stroke="black" stroke-linecap="round" stroke-linejoin="round"/>
<path d="M147.561 152.753H138.482V303.253H282.959V278.758C282.959 270.74 277.434 263.741 269.616 261.958C251.151 257.761 216.111 252.894 180.991 264.787C180.991 264.787 186.194 200.618 147.561 152.753Z" fill="#7600FF" stroke="black" stroke-linecap="round" stroke-linejoin="round"/>
<path d="M138.013 302.65H283.603V305.573C283.603 307.558 281.994 309.153 280.022 309.153H141.607C139.622 309.153 138.027 307.544 138.027 305.573V302.65H138.013Z" fill="black"/>
<path d="M191.116 100.758C191.022 99.8192 190.646 99.0282 189.976 98.3712C189.131 97.5533 188.112 97.2047 186.945 97.312C186.141 97.379 185.443 97.6874 184.84 98.2103C184.719 98.3176 184.706 98.3176 184.585 98.2103C184.25 97.9287 183.888 97.7142 183.486 97.5533C182.815 97.2986 182.131 97.2181 181.42 97.3522C180.79 97.4595 180.227 97.7142 179.731 98.1165C178.899 98.7868 178.43 99.6583 178.309 100.718C178.229 101.361 178.35 101.964 178.604 102.528H174.018V104.016H179.704C180.535 104.847 181.38 105.665 182.212 106.496C182.547 106.831 182.882 107.193 183.217 107.542C183.566 107.904 183.915 108.266 184.25 108.628C184.397 108.789 184.558 108.95 184.719 109.124C184.76 109.084 184.786 109.057 184.813 109.03C185.47 108.36 186.127 107.689 186.798 107.019C187.643 106.161 188.487 105.303 189.332 104.445C189.748 104.029 190.177 103.627 190.499 103.131C190.982 102.407 191.21 101.629 191.129 100.758H191.116Z" fill="#CEBAF4"/>
<path d="M486.988 69.7468C486.64 68.7814 486.184 67.8563 485.647 66.9848C485.366 66.529 472.318 63.9681 468.456 76.7053C467.973 78.2874 468.013 80.2449 468.282 82.0147C468.335 82.3768 468.443 82.7924 468.349 83.1678C468.228 83.6639 467.786 83.2617 467.437 83.141C466.726 82.8862 465.975 82.7656 465.224 82.7924C461.832 82.8997 459.096 85.4069 457.929 88.4638C457.178 90.4213 456.964 92.5397 456.95 94.6179C456.95 96.8436 457.152 99.0558 457.514 101.255C455.797 101.214 454.228 102.461 453.611 104.07C452.753 106.35 453.424 109.085 454 111.351C455.314 116.472 457.835 121.098 460.357 125.71C461.765 128.298 463.052 131.006 463.615 133.916C463.642 134.09 463.991 134.05 463.991 133.875C463.977 133.151 464.259 131.69 464.326 131.435C465.519 126.984 467.517 122.787 470.226 119.047C471.594 117.17 473.136 115.453 474.785 113.818C476.247 112.396 477.816 110.828 478.259 108.75C478.688 106.725 477.964 104.607 476.462 103.212C479.519 100.772 483.247 98.2648 484.668 94.4838C485.258 92.9285 485.352 90.9308 484.186 89.6169C483.515 88.866 482.59 88.5174 481.651 88.504C483.81 86.0504 485.862 83.4494 487.002 80.3522C488.235 76.9601 488.209 73.1255 487.002 69.72L486.988 69.7468Z" fill="#7600FF" stroke="black" stroke-linecap="round" stroke-linejoin="round"/>
<path d="M529.296 99.4048C529.631 98.4394 529.846 97.4204 529.98 96.4015C530.047 95.8652 521.438 85.729 510.482 93.2909C509.114 94.2294 507.921 95.7847 507.036 97.3266C506.848 97.6484 506.674 98.0372 506.379 98.2651C505.976 98.5735 505.883 97.9836 505.681 97.6752C505.293 97.0316 504.77 96.4685 504.166 96.0126C501.444 93.9881 497.743 94.2428 494.927 95.892C493.13 96.9512 491.628 98.4797 490.327 100.102C488.933 101.832 487.712 103.695 486.626 105.639C485.312 104.54 483.301 104.54 481.825 105.411C479.72 106.658 478.553 109.206 477.588 111.351C475.416 116.178 474.504 121.366 473.605 126.542C473.096 129.438 472.412 132.361 471.044 134.989C470.964 135.136 471.259 135.337 471.366 135.19C471.808 134.613 472.935 133.648 473.149 133.487C476.864 130.752 481.048 128.714 485.486 127.48C487.726 126.864 490.005 126.475 492.312 126.233C494.337 126.019 496.549 125.778 498.185 124.437C499.781 123.123 500.532 121.018 500.237 118.993C504.153 118.993 508.632 119.355 512.091 117.291C513.513 116.446 514.84 114.944 514.746 113.188C514.693 112.182 514.183 111.338 513.459 110.734C516.677 110.158 519.909 109.407 522.725 107.691C525.809 105.814 528.17 102.783 529.336 99.378L529.296 99.4048Z" fill="#7600FF" stroke="black" stroke-linecap="round" stroke-linejoin="round"/>
<path d="M492.982 106.135C489.67 107.904 486.64 110.036 483.944 112.664C481.289 115.252 478.956 118.188 476.931 121.285C472.398 128.257 469.569 136.221 467.745 144.293C466.847 148.288 466.042 152.404 465.68 156.507C465.533 155.314 465.372 154.134 465.264 152.954C465.036 150.5 464.849 148.033 464.715 145.566C464.446 140.592 464.393 135.618 464.594 130.644C464.996 120.789 466.351 110.948 469.1 101.455C469.864 98.814 470.709 96.1995 471.674 93.6253C472.653 91.0242 473.806 88.4768 474.678 85.8489C474.718 85.7282 474.517 85.688 474.45 85.7684C473.082 87.8332 472.077 90.1527 471.124 92.4186C470.186 94.6711 469.368 96.9772 468.63 99.2967C467.102 104.056 465.975 108.937 465.13 113.857C463.454 123.725 463.025 133.768 463.481 143.77C463.602 146.559 463.803 149.334 464.058 152.109C464.192 153.53 464.339 154.952 464.5 156.373C464.661 157.74 464.795 159.135 465.144 160.476C465.238 160.851 465.989 160.797 465.989 160.382C465.989 159.993 465.962 159.591 465.935 159.189C466.136 159.202 466.351 159.121 466.377 158.934C467.182 154.71 467.651 150.447 468.55 146.237C469.448 142 470.588 137.817 472.09 133.754C474.705 126.635 478.5 119.877 483.663 114.286C486.465 111.256 489.643 108.454 493.157 106.282C493.291 106.202 493.103 106.054 492.996 106.108L492.982 106.135Z" fill="black"/>
<path d="M453.357 150.822C453.196 151.627 453.102 152.471 453.102 153.316V169.204C453.102 176.324 458.922 182.142 466.042 182.142H467.933C475.054 182.142 480.873 176.324 480.873 169.204V153.316C480.873 152.458 480.78 151.627 480.619 150.822H453.33H453.357Z" fill="#7600FF" stroke="black" stroke-linecap="round" stroke-linejoin="round"/>
<path d="M480.967 159.122H453.263" stroke="black" stroke-miterlimit="10"/>
<path d="M480.94 162.836H453.397" stroke="black" stroke-linecap="round" stroke-linejoin="round"/>
<path d="M591.329 360.33H0.67041" stroke="black" stroke-linecap="round" stroke-linejoin="round"/>
<path d="M295.46 77L300.38 70.1L295.54 63.24H298.18L301.72 68.22H301.88L305.4 63.24H307.98L303.14 70.04L308.04 77H305.4L301.78 71.88H301.62L298.02 77H295.46ZM315.16 77V63.24H321.58C322.447 63.24 323.147 63.34 323.68 63.54C324.214 63.74 324.614 64.0333 324.88 64.42C325.147 64.7933 325.327 65.2467 325.42 65.78C325.514 66.3 325.56 66.8733 325.56 67.5C325.56 67.9533 325.514 68.4533 325.42 69C325.34 69.5333 325.154 70.0267 324.86 70.48C324.58 70.92 324.134 71.24 323.52 71.44L325.78 77H323.38L321.18 71.38L321.76 71.68C321.667 71.72 321.554 71.7467 321.42 71.76C321.3 71.76 321.154 71.76 320.98 71.76H317.42V77H315.16ZM317.42 69.84H320.62C321.247 69.84 321.74 69.8 322.1 69.72C322.46 69.6267 322.727 69.4867 322.9 69.3C323.074 69.1133 323.18 68.8733 323.22 68.58C323.274 68.2867 323.3 67.9267 323.3 67.5C323.3 67.06 323.274 66.6933 323.22 66.4C323.18 66.0933 323.08 65.8533 322.92 65.68C322.76 65.4933 322.5 65.36 322.14 65.28C321.794 65.2 321.314 65.16 320.7 65.16H317.42V69.84ZM328.735 77V63.24H337.895V65.16H330.995V69.1H336.955V71.02H330.995V75.08H337.895V77H328.735ZM345.543 77.16C345.05 77.16 344.503 77.1467 343.903 77.12C343.317 77.0933 342.737 77.0533 342.163 77C341.603 76.96 341.09 76.9133 340.623 76.86V75C341.103 75.04 341.603 75.08 342.123 75.12C342.657 75.16 343.163 75.1933 343.643 75.22C344.123 75.2333 344.537 75.24 344.883 75.24C345.59 75.24 346.143 75.2067 346.543 75.14C346.943 75.0733 347.263 74.9667 347.503 74.82C347.663 74.7133 347.777 74.58 347.843 74.42C347.923 74.26 347.97 74.0733 347.983 73.86C348.01 73.6333 348.023 73.3867 348.023 73.12C348.023 72.76 348.01 72.46 347.983 72.22C347.957 71.98 347.897 71.7933 347.803 71.66C347.71 71.5267 347.563 71.4333 347.363 71.38C347.163 71.3133 346.903 71.26 346.583 71.22L343.303 70.84C342.663 70.76 342.137 70.6267 341.723 70.44C341.323 70.24 341.01 69.98 340.783 69.66C340.57 69.34 340.423 68.96 340.343 68.52C340.263 68.08 340.223 67.5933 340.223 67.06C340.223 66.1667 340.343 65.46 340.583 64.94C340.823 64.42 341.163 64.0267 341.603 63.76C342.057 63.48 342.59 63.3 343.203 63.22C343.817 63.1267 344.497 63.08 345.243 63.08C345.763 63.08 346.297 63.1 346.843 63.14C347.39 63.1667 347.903 63.2067 348.383 63.26C348.877 63.3 349.283 63.36 349.603 63.44V65.26C349.27 65.2067 348.877 65.16 348.423 65.12C347.983 65.08 347.523 65.0533 347.043 65.04C346.563 65.0133 346.117 65 345.703 65C345.01 65 344.45 65.0333 344.023 65.1C343.61 65.1533 343.29 65.2467 343.063 65.38C342.797 65.5267 342.637 65.7333 342.583 66C342.53 66.2533 342.503 66.5733 342.503 66.96C342.503 67.4133 342.53 67.7667 342.583 68.02C342.65 68.26 342.79 68.4267 343.003 68.52C343.23 68.6133 343.57 68.6867 344.023 68.74L347.303 69.12C347.717 69.16 348.09 69.2267 348.423 69.32C348.757 69.4 349.05 69.54 349.303 69.74C349.57 69.94 349.777 70.2267 349.923 70.6C350.017 70.7867 350.083 71 350.123 71.24C350.177 71.48 350.217 71.7467 350.243 72.04C350.283 72.32 350.303 72.64 350.303 73C350.303 73.76 350.223 74.3933 350.063 74.9C349.917 75.4067 349.703 75.8133 349.423 76.12C349.157 76.4133 348.823 76.64 348.423 76.8C348.023 76.9467 347.583 77.04 347.103 77.08C346.623 77.1333 346.103 77.16 345.543 77.16ZM358.544 77.16C357.597 77.16 356.804 77.1067 356.164 77C355.524 76.88 355.004 76.6867 354.604 76.42C354.217 76.1533 353.917 75.7867 353.704 75.32C353.504 74.84 353.364 74.24 353.284 73.52C353.217 72.8 353.184 71.9333 353.184 70.92V63.24H355.444V71.62C355.444 72.3933 355.471 73.02 355.524 73.5C355.577 73.98 355.697 74.3467 355.884 74.6C356.071 74.8533 356.377 75.0267 356.804 75.12C357.231 75.2 357.811 75.24 358.544 75.24C359.291 75.24 359.871 75.2 360.284 75.12C360.697 75.0267 360.997 74.8533 361.184 74.6C361.384 74.3467 361.504 73.98 361.544 73.5C361.597 73.02 361.624 72.3933 361.624 71.62V63.24H363.884V70.92C363.884 71.9333 363.844 72.8 363.764 73.52C363.697 74.24 363.564 74.84 363.364 75.32C363.164 75.7867 362.864 76.1533 362.464 76.42C362.077 76.6867 361.564 76.88 360.924 77C360.284 77.1067 359.491 77.16 358.544 77.16ZM367.426 77V63.24H369.686V75.02H375.786V77H367.426ZM379.055 77V65.22H374.875V63.24H385.475V65.22H381.315V77H379.055Z" fill="white"/>
</g>
<defs>
<clipPath id="clip0_1_8618">
<rect width="592" height="361" fill="white"/>
</clipPath>
</defs>
</svg>
