<svg width="34" height="40" viewBox="0 0 34 40" fill="none" xmlns="http://www.w3.org/2000/svg">
<path d="M24 6H27.6667C28.6391 6 29.5718 6.36875 30.2594 7.02513C30.947 7.6815 31.3333 8.57174 31.3333 9.5V34C31.3333 34.9283 30.947 35.8185 30.2594 36.4749C29.5718 37.1313 28.6391 37.5 27.6667 37.5H5.66667C4.69421 37.5 3.76158 37.1313 3.07394 36.4749C2.38631 35.8185 2 34.9283 2 34V9.5C2 8.57174 2.38631 7.6815 3.07394 7.02513C3.76158 6.36875 4.69421 6 5.66667 6H9.33333M11.1667 2.5H22.1667C23.1792 2.5 24 3.2835 24 4.25V7.75C24 8.7165 23.1792 9.5 22.1667 9.5H11.1667C10.1541 9.5 9.33333 8.7165 9.33333 7.75V4.25C9.33333 3.2835 10.1541 2.5 11.1667 2.5Z" stroke="white" stroke-width="4" stroke-linecap="round" stroke-linejoin="round"/>
</svg>
