<svg width="40" height="40" viewBox="0 0 40 40" fill="none" xmlns="http://www.w3.org/2000/svg">
<path d="M9.98168 5.15758C10.1404 4.00163 10.3563 3.82146 11.5276 3.82146C12.8683 3.82146 14.2079 3.82146 15.5485 3.82146C15.739 3.82146 15.9295 3.82146 16.1062 3.82146C16.4279 2.5822 17.0437 2.0063 18.0077 2.00005C18.9843 1.9938 19.597 2.55928 19.9197 3.81626C20.4604 3.81626 21.0191 3.81626 21.5789 3.81626C22.5841 3.81626 23.5893 3.81626 24.5946 3.81626C25.5427 3.81626 25.7427 4.00059 25.7998 4.91702C25.804 4.98367 25.8199 5.04928 25.8347 5.14717C26.2432 5.17737 26.6452 5.1857 27.041 5.2409C29.8144 5.62517 31.7645 7.73193 31.8227 10.4937C31.8714 12.8181 31.8354 15.1446 31.8375 17.4701C31.8375 17.6752 31.8375 17.8794 31.9635 18.1595C33.8332 16.3464 35.704 14.5344 37.5928 12.7025C37.7409 12.7786 37.8732 12.8473 38.0234 12.9244C38.2678 12.6963 38.5091 12.4714 38.7429 12.2537C39.163 12.6796 39.5704 13.092 40.0011 13.5284C39.9799 13.8814 39.0657 13.9189 39.4805 14.5021C38.6477 15.3623 37.8361 16.2256 36.997 17.0619C35.4363 18.6177 33.867 20.1663 32.282 21.6982C31.9518 22.0169 31.8344 22.3459 31.8365 22.7948C31.8523 26.3522 31.8566 29.9107 31.8407 33.4681C31.828 36.131 30.1868 38.2159 27.6261 38.8397C27.186 38.9469 26.7204 38.9938 26.2664 38.9938C20.7641 39.0021 15.2628 39.0032 9.76053 38.9938C6.47606 38.9886 4.0106 36.5538 4.00848 33.3223C4.00002 25.7888 3.99896 18.2563 4.00213 10.7239C4.00319 7.76213 6.33004 5.39502 9.4251 5.18987C9.59969 5.17841 9.77322 5.16904 9.98168 5.15758ZM10.1087 7.07481C7.90243 6.6947 5.83589 8.52444 5.83589 10.803C5.83589 18.2647 5.83589 25.7263 5.83906 33.189C5.83906 35.6103 7.41146 37.1703 9.86634 37.1734C15.2967 37.1818 20.7281 37.1838 26.1585 37.1807C28.4515 37.1797 30.0017 35.653 30.0091 33.3817C30.0186 30.4668 30.0091 27.5509 30.0038 24.636C30.0038 24.4725 29.9837 24.309 29.9678 24.0674C29.8017 24.1976 29.7012 24.26 29.6186 24.3413C28.7605 25.19 27.8335 25.9836 27.0643 26.9042C25.6665 28.5777 23.8168 29.4879 21.7175 30.2325C22.09 29.416 22.3958 28.6464 22.7841 27.9206C23.1767 27.1864 23.6497 26.4949 24.1089 25.7513H13.3381V24.8484H14.0132C17.5929 24.8484 21.1715 24.8557 24.7512 24.8349C25.0316 24.8328 25.3839 24.711 25.5786 24.5214C26.9447 23.1916 28.2684 21.82 29.6281 20.4839C29.917 20.1996 30.0186 19.907 30.0175 19.5196C30.007 16.6734 30.0154 13.8273 30.008 10.9822C30.008 10.6197 29.9826 10.2511 29.9149 9.89493C29.5625 8.04435 27.7161 6.72802 25.9352 7.08939C26.0442 7.54136 26.15 7.99332 26.2633 8.44425C26.4791 9.30445 26.1416 9.73559 25.2284 9.73767C23.5354 9.74288 21.8434 9.74288 20.1504 9.74288C17.0299 9.74288 13.9084 9.74392 10.788 9.73663C9.89173 9.73455 9.55207 9.28154 9.77005 8.4203C9.8801 7.98395 9.99014 7.5476 10.1097 7.07585L10.1087 7.07481ZM18.9473 3.82563C18.9526 3.32159 18.524 2.88941 18.0172 2.88733C17.522 2.88524 17.1082 3.27785 17.0924 3.76627C17.0765 4.28385 17.4744 4.71186 17.9897 4.72957C18.5039 4.74727 18.942 4.33384 18.9462 3.82667L18.9473 3.82563ZM36.8267 14.1376C37.27 14.5844 37.6795 14.9968 38.1218 15.4425C38.3377 15.2123 38.5535 14.9811 38.7493 14.7718C38.2943 14.3261 37.888 13.9293 37.4732 13.5253C37.2605 13.7273 37.0383 13.9377 36.8267 14.1386V14.1376ZM23.3364 27.5488C23.1587 27.9279 22.9767 28.2444 22.8656 28.5839C22.8201 28.7214 22.8814 28.9484 22.9809 29.0599C23.0634 29.1515 23.2962 29.1963 23.4222 29.1525C23.7787 29.0265 24.1142 28.8432 24.4856 28.6693C24.0972 28.2903 23.7428 27.9456 23.3354 27.5488H23.3364Z" fill="white"/>
<path d="M26.186 15.7344C26.4018 16.5508 26.3563 16.6029 25.5373 16.6019C21.6825 16.5987 17.8277 16.5998 13.9719 16.5987C13.7655 16.5987 13.5603 16.5987 13.3232 16.5987V15.7344H26.186Z" fill="white"/>
<path d="M13.3274 21.1657V20.3086H26.2007C26.3806 21.1323 26.3457 21.1709 25.5605 21.1698C21.7004 21.1667 17.8414 21.1667 13.9813 21.1657C13.7739 21.1657 13.5665 21.1657 13.3274 21.1657Z" fill="white"/>
<path d="M20.6827 29.457V30.2631C20.5176 30.2797 20.3673 30.3079 20.2171 30.3089C18.159 30.3131 16.102 30.3131 14.0439 30.3131C13.4972 30.3131 13.2633 30.0277 13.3424 29.457H20.6837H20.6827Z" fill="white"/>
<path d="M10.5647 30.7653C10.0737 30.7528 9.66847 30.3383 9.67165 29.853C9.67482 29.3427 10.1161 28.9283 10.6271 28.9543C11.116 28.9793 11.5096 29.4063 11.4916 29.8916C11.4737 30.3852 11.0568 30.7778 10.5637 30.7653H10.5647Z" fill="white"/>
<path d="M11.4959 16.1665C11.4927 16.658 11.0917 17.0423 10.5827 17.0402C10.06 17.0381 9.65789 16.6237 9.67587 16.104C9.6928 15.6114 10.1012 15.2417 10.6144 15.2542C11.1086 15.2667 11.499 15.6708 11.4959 16.1665Z" fill="white"/>
<path d="M11.5001 20.724C11.4959 21.2176 11.098 21.6113 10.5975 21.6175C10.0769 21.6238 9.66529 21.2093 9.67905 20.6907C9.6928 20.1929 10.096 19.8169 10.6049 19.8284C11.116 19.8388 11.5043 20.2272 11.5001 20.724Z" fill="white"/>
<path d="M10.6039 24.3928C11.1139 24.4032 11.4991 24.7937 11.4927 25.2946C11.4864 25.7883 11.0853 26.1871 10.5901 26.1902C10.0695 26.1944 9.6505 25.7695 9.67167 25.2603C9.69177 24.7698 10.1076 24.3824 10.6039 24.3928Z" fill="white"/>
</svg>
