<svg width="28" height="28" viewBox="0 0 28 28" fill="none" xmlns="http://www.w3.org/2000/svg">
<path d="M10.2629 0.666016L9.41658 4.46549C8.93522 4.69713 8.47506 4.96393 8.03377 5.26497L4.32023 4.0957L0.583252 10.5697L3.39836 13.1478C3.28837 13.9641 3.33819 14.3666 3.39836 14.8509L0.583252 17.429L4.32023 23.903L8.03377 22.7337C8.47506 23.0348 8.93522 23.3016 9.41658 23.5332L10.2629 27.3327H17.7369L18.5833 23.5332C19.0646 23.3016 19.5248 23.0348 19.9661 22.7337L23.6796 23.903L27.4166 17.429L24.6015 14.8509C24.6245 14.5675 24.6663 14.2839 24.6666 13.9993C24.6677 13.7062 24.6215 13.4101 24.6015 13.1478L27.4166 10.5697L23.6796 4.0957L19.9661 5.26497C19.5248 4.96393 19.0646 4.69713 18.5833 4.46549L17.7369 0.666016H10.2629ZM12.4036 3.33268H15.5963L16.2551 6.29102L16.9166 6.55143C17.6648 6.84446 18.3643 7.2478 18.9921 7.74935L19.5494 8.19206L22.44 7.2832L24.0364 10.0488L21.802 12.0983L21.9088 12.8014C22.0344 13.579 22.01 14.4739 21.9088 15.1973L21.802 15.9004L24.0364 17.9499L22.44 20.7155L19.5494 19.8066L18.9921 20.2493C18.3643 20.7509 17.6648 21.1542 16.9166 21.4473L16.2551 21.7077L15.5963 24.666H12.4036L11.7447 21.7077L11.0833 21.4473C10.335 21.1542 9.63557 20.7509 9.00773 20.2493L8.45044 19.8066L5.55981 20.7155L3.96346 17.9499L6.19783 15.9004L6.09106 15.1973C5.96083 14.404 5.98083 13.4961 6.09106 12.8014L6.19783 12.0983L3.96346 10.0488L5.55981 7.2832L8.45044 8.19206L9.00773 7.74935C9.63557 7.2478 10.335 6.84446 11.0833 6.55143L11.7447 6.29102L12.4036 3.33268ZM13.9999 8.66602C11.0702 8.66602 8.66658 11.0696 8.66658 13.9993C8.66658 16.9291 11.0702 19.3327 13.9999 19.3327C16.9296 19.3327 19.3333 16.9291 19.3333 13.9993C19.3333 11.0696 16.9296 8.66602 13.9999 8.66602ZM13.9999 11.3327C15.4885 11.3327 16.6666 12.5108 16.6666 13.9993C16.6666 15.4879 15.4885 16.666 13.9999 16.666C12.5114 16.666 11.3333 15.4879 11.3333 13.9993C11.3333 12.5108 12.5114 11.3327 13.9999 11.3327Z" fill="#A098AE"/>
</svg>
