<svg width="210" height="215" viewBox="0 0 210 215" fill="none" xmlns="http://www.w3.org/2000/svg">
<g filter="url(#filter0_d_1_7446)">
<path d="M62.8359 175L60.5259 170.92H59.5359V175H57.4359V164.53H61.3659C62.1759 164.53 62.8659 164.675 63.4359 164.965C64.0059 165.245 64.4309 165.63 64.7109 166.12C65.0009 166.6 65.1459 167.14 65.1459 167.74C65.1459 168.43 64.9459 169.055 64.5459 169.615C64.1459 170.165 63.5509 170.545 62.7609 170.755L65.2659 175H62.8359ZM59.5359 169.345H61.2909C61.8609 169.345 62.2859 169.21 62.5659 168.94C62.8459 168.66 62.9859 168.275 62.9859 167.785C62.9859 167.305 62.8459 166.935 62.5659 166.675C62.2859 166.405 61.8609 166.27 61.2909 166.27H59.5359V169.345ZM82.4203 170.665C82.4203 170.965 82.4003 171.235 82.3603 171.475H76.2853C76.3353 172.075 76.5453 172.545 76.9153 172.885C77.2853 173.225 77.7403 173.395 78.2803 173.395C79.0603 173.395 79.6153 173.06 79.9453 172.39H82.2103C81.9703 173.19 81.5103 173.85 80.8303 174.37C80.1503 174.88 79.3153 175.135 78.3253 175.135C77.5253 175.135 76.8053 174.96 76.1653 174.61C75.5353 174.25 75.0403 173.745 74.6803 173.095C74.3303 172.445 74.1553 171.695 74.1553 170.845C74.1553 169.985 74.3303 169.23 74.6803 168.58C75.0303 167.93 75.5203 167.43 76.1503 167.08C76.7803 166.73 77.5053 166.555 78.3253 166.555C79.1153 166.555 79.8203 166.725 80.4403 167.065C81.0703 167.405 81.5553 167.89 81.8953 168.52C82.2453 169.14 82.4203 169.855 82.4203 170.665ZM80.2453 170.065C80.2353 169.525 80.0403 169.095 79.6603 168.775C79.2803 168.445 78.8153 168.28 78.2653 168.28C77.7453 168.28 77.3053 168.44 76.9453 168.76C76.5953 169.07 76.3803 169.505 76.3003 170.065H80.2453ZM94.7831 175.135C94.1031 175.135 93.4931 175.015 92.9531 174.775C92.4131 174.525 91.9831 174.19 91.6631 173.77C91.3531 173.35 91.1831 172.885 91.1531 172.375H93.2681C93.3081 172.695 93.4631 172.96 93.7331 173.17C94.0131 173.38 94.3581 173.485 94.7681 173.485C95.1681 173.485 95.4781 173.405 95.6981 173.245C95.9281 173.085 96.0431 172.88 96.0431 172.63C96.0431 172.36 95.9031 172.16 95.6231 172.03C95.3531 171.89 94.9181 171.74 94.3181 171.58C93.6981 171.43 93.1881 171.275 92.7881 171.115C92.3981 170.955 92.0581 170.71 91.7681 170.38C91.4881 170.05 91.3481 169.605 91.3481 169.045C91.3481 168.585 91.4781 168.165 91.7381 167.785C92.0081 167.405 92.3881 167.105 92.8781 166.885C93.3781 166.665 93.9631 166.555 94.6331 166.555C95.6231 166.555 96.4131 166.805 97.0031 167.305C97.5931 167.795 97.9181 168.46 97.9781 169.3H95.9681C95.9381 168.97 95.7981 168.71 95.5481 168.52C95.3081 168.32 94.9831 168.22 94.5731 168.22C94.1931 168.22 93.8981 168.29 93.6881 168.43C93.4881 168.57 93.3881 168.765 93.3881 169.015C93.3881 169.295 93.5281 169.51 93.8081 169.66C94.0881 169.8 94.5231 169.945 95.1131 170.095C95.7131 170.245 96.2081 170.4 96.5981 170.56C96.9881 170.72 97.3231 170.97 97.6031 171.31C97.8931 171.64 98.0431 172.08 98.0531 172.63C98.0531 173.11 97.9181 173.54 97.6481 173.92C97.3881 174.3 97.0081 174.6 96.5081 174.82C96.0181 175.03 95.4431 175.135 94.7831 175.135ZM115.272 166.69V175H113.157V173.95C112.887 174.31 112.532 174.595 112.092 174.805C111.662 175.005 111.192 175.105 110.682 175.105C110.032 175.105 109.457 174.97 108.957 174.7C108.457 174.42 108.062 174.015 107.772 173.485C107.492 172.945 107.352 172.305 107.352 171.565V166.69H109.452V171.265C109.452 171.925 109.617 172.435 109.947 172.795C110.277 173.145 110.727 173.32 111.297 173.32C111.877 173.32 112.332 173.145 112.662 172.795C112.992 172.435 113.157 171.925 113.157 171.265V166.69H115.272ZM127.094 163.9V175H124.994V163.9H127.094ZM139.264 168.415V172.435C139.264 172.715 139.329 172.92 139.459 173.05C139.599 173.17 139.829 173.23 140.149 173.23H141.124V175H139.804C138.034 175 137.149 174.14 137.149 172.42V168.415H136.159V166.69H137.149V164.635H139.264V166.69H141.124V168.415H139.264Z" fill="white"/>
</g>
<g filter="url(#filter1_d_1_7446)">
<path d="M55.4669 157.754C55.8814 156.517 56.2033 155.244 56.7184 154.052C62.5134 140.644 69.9945 128.162 77.713 115.814C80.3086 111.664 83.0331 107.591 85.8018 103.554C86.5704 102.434 86.6388 101.745 85.7414 100.625C75.391 87.6799 65.105 74.6868 54.8029 61.7057C54.2636 61.0248 53.7445 60.3278 53 59.3609C53.7767 59.2844 54.3159 59.1836 54.8552 59.1836C61.628 59.1715 68.4049 59.1232 75.1737 59.236C76.055 59.2521 77.1778 59.9008 77.7573 60.6139C84.2001 68.5186 90.5544 76.4957 96.9369 84.4487C97.3474 84.9644 97.786 85.456 98.3494 86.1207C100.217 83.8766 101.979 81.7172 103.786 79.598C111.195 70.8916 118.966 62.5558 128.451 56.033C133.582 52.4997 139.007 49.6594 145.365 49.0832C153.083 48.3822 157.414 52.121 157.084 59.8726C156.733 68.1519 153.751 75.6819 149.393 82.6801C149.228 82.946 148.971 83.1555 148.46 83.232C148.955 82.0395 149.586 80.8792 149.92 79.6423C151.039 75.5207 152.106 71.3791 153.071 67.2172C153.309 66.2019 153.16 65.0739 153.059 64.0102C152.58 58.954 149.494 56.4521 144.649 57.9145C140.854 59.0628 137.135 60.8153 133.743 62.8902C124.737 68.3937 117.304 75.7987 110.213 83.5221C94.0555 101.124 80.2443 120.511 67.2258 140.495C63.8212 145.72 60.5133 151.014 57.1571 156.272C56.7828 156.86 56.3723 157.424 55.978 158C55.8089 157.919 55.6399 157.839 55.4709 157.754H55.4669Z" fill="#5F3293"/>
<path d="M106.439 95.5431C118.523 110.762 130.321 125.622 142.405 140.844C140.181 140.844 138.408 140.844 136.634 140.844C131.156 140.844 125.678 140.884 120.204 140.8C119.393 140.788 118.314 140.405 117.832 139.809C110.24 130.371 102.723 120.872 95.1944 111.382C95.0299 111.176 94.9135 110.935 94.6406 110.48C98.4892 105.606 102.374 100.687 106.435 95.5391L106.439 95.5431Z" fill="#5F3293"/>
</g>
<defs>
<filter id="filter0_d_1_7446" x="53.436" y="163.9" width="91.6875" height="19.2344" filterUnits="userSpaceOnUse" color-interpolation-filters="sRGB">
<feFlood flood-opacity="0" result="BackgroundImageFix"/>
<feColorMatrix in="SourceAlpha" type="matrix" values="0 0 0 0 0 0 0 0 0 0 0 0 0 0 0 0 0 0 127 0" result="hardAlpha"/>
<feOffset dy="4"/>
<feGaussianBlur stdDeviation="2"/>
<feComposite in2="hardAlpha" operator="out"/>
<feColorMatrix type="matrix" values="0 0 0 0 0.372549 0 0 0 0 0.196078 0 0 0 0 0.576471 0 0 0 0.25 0"/>
<feBlend mode="normal" in2="BackgroundImageFix" result="effect1_dropShadow_1_7446"/>
<feBlend mode="normal" in="SourceGraphic" in2="effect1_dropShadow_1_7446" result="shape"/>
</filter>
<filter id="filter1_d_1_7446" x="0.299999" y="0.299999" width="209.501" height="214.4" filterUnits="userSpaceOnUse" color-interpolation-filters="sRGB">
<feFlood flood-opacity="0" result="BackgroundImageFix"/>
<feColorMatrix in="SourceAlpha" type="matrix" values="0 0 0 0 0 0 0 0 0 0 0 0 0 0 0 0 0 0 127 0" result="hardAlpha"/>
<feOffset dy="4"/>
<feGaussianBlur stdDeviation="26.35"/>
<feComposite in2="hardAlpha" operator="out"/>
<feColorMatrix type="matrix" values="0 0 0 0 0 0 0 0 0 0 0 0 0 0 0 0 0 0 0.5 0"/>
<feBlend mode="normal" in2="BackgroundImageFix" result="effect1_dropShadow_1_7446"/>
<feBlend mode="normal" in="SourceGraphic" in2="effect1_dropShadow_1_7446" result="shape"/>
</filter>
</defs>
</svg>
