<svg width="30" height="38" viewBox="0 0 30 38" fill="none" xmlns="http://www.w3.org/2000/svg">
<path d="M21.1757 10.2158C21.1757 10.5595 21.1523 10.9033 21.1093 11.2431C21.1289 11.1064 21.1484 10.9658 21.164 10.829C21.0703 11.5087 20.8906 12.1689 20.6289 12.8017C20.6796 12.6767 20.7343 12.5517 20.7851 12.4267C20.5234 13.0439 20.1875 13.622 19.7773 14.1533C19.8593 14.0478 19.9414 13.9423 20.0234 13.8368C19.6171 14.3603 19.1445 14.8329 18.621 15.2392C18.7265 15.1572 18.832 15.0751 18.9375 14.9931C18.4062 15.3993 17.8281 15.7392 17.2109 16.0009C17.3359 15.9501 17.4609 15.8954 17.5859 15.8447C16.9531 16.1064 16.2929 16.2861 15.6132 16.3798C15.75 16.3603 15.8906 16.3408 16.0273 16.3251C15.3437 16.415 14.6562 16.415 13.9726 16.3251C14.1093 16.3447 14.25 16.3642 14.3867 16.3798C13.707 16.2861 13.0468 16.1064 12.414 15.8447C12.539 15.8954 12.664 15.9501 12.789 16.0009C12.1718 15.7392 11.5937 15.4033 11.0624 14.9931C11.1679 15.0751 11.2734 15.1572 11.3789 15.2392C10.8554 14.8329 10.3828 14.3603 9.97651 13.8368C10.0585 13.9423 10.1406 14.0478 10.2226 14.1533C9.81635 13.622 9.47651 13.0439 9.21479 12.4267C9.26557 12.5517 9.32026 12.6767 9.37104 12.8017C9.10932 12.1689 8.92964 11.5087 8.83589 10.829C8.85542 10.9658 8.87495 11.1064 8.89057 11.2431C8.80073 10.5595 8.80073 9.872 8.89057 9.18841C8.87104 9.32513 8.85151 9.46575 8.83589 9.60247C8.92964 8.92278 9.10932 8.26263 9.37104 7.62981C9.32026 7.75481 9.26557 7.87981 9.21479 8.00481C9.47651 7.38763 9.81245 6.8095 10.2226 6.27825C10.1406 6.38372 10.0585 6.48919 9.97651 6.59466C10.3828 6.07122 10.8554 5.59856 11.3789 5.19231C11.2734 5.27434 11.1679 5.35638 11.0624 5.43841C11.5937 5.03216 12.1718 4.69231 12.789 4.4306C12.664 4.48138 12.539 4.53606 12.414 4.58685C13.0468 4.32513 13.707 4.14544 14.3867 4.05169C14.25 4.07122 14.1093 4.09075 13.9726 4.10638C14.6562 4.01653 15.3437 4.01653 16.0273 4.10638C15.8906 4.08684 15.75 4.06731 15.6132 4.05169C16.2929 4.14544 16.9531 4.32513 17.5859 4.58685C17.4609 4.53606 17.3359 4.48138 17.2109 4.4306C17.8281 4.69231 18.4062 5.02825 18.9375 5.43841C18.832 5.35638 18.7265 5.27434 18.621 5.19231C19.1445 5.59856 19.6171 6.07122 20.0234 6.59466C19.9414 6.48919 19.8593 6.38372 19.7773 6.27825C20.1836 6.8095 20.5234 7.38763 20.7851 8.00481C20.7343 7.87981 20.6796 7.75481 20.6289 7.62981C20.8906 8.26263 21.0703 8.92278 21.164 9.60247C21.1445 9.46575 21.125 9.32513 21.1093 9.18841C21.1523 9.52825 21.1718 9.872 21.1757 10.2158C21.1796 11.0322 21.8906 11.8173 22.7382 11.7783C23.582 11.7392 24.3046 11.0908 24.3007 10.2158C24.2929 8.34466 23.7304 6.43059 22.6289 4.90716C22.332 4.497 22.0156 4.09466 21.664 3.73138C21.3085 3.36419 20.9179 3.04778 20.5117 2.73919C19.7734 2.17669 18.9492 1.76263 18.0742 1.44231C14.5468 0.149345 10.2929 1.30169 7.9062 4.20794C7.57807 4.60638 7.26557 5.02044 6.99995 5.46575C6.73432 5.90716 6.52729 6.37591 6.33588 6.85247C5.97651 7.73528 5.79291 8.67278 5.71869 9.622C5.57416 11.4814 6.05854 13.4228 7.02729 15.0165C7.96088 16.5556 9.37104 17.8759 11.0195 18.622C11.5039 18.8408 11.9999 19.0439 12.5156 19.1884C13.0273 19.329 13.5468 19.4072 14.0742 19.4697C15.0351 19.5829 16.0156 19.5048 16.9648 19.3134C20.5703 18.579 23.5898 15.4736 24.1484 11.829C24.2304 11.2978 24.2929 10.7665 24.2929 10.2275C24.2968 9.41106 23.5703 8.62591 22.7304 8.66497C21.8867 8.69231 21.1757 9.34075 21.1757 10.2158ZM26.3593 34.6415C25.5937 34.6415 24.8281 34.6415 24.0625 34.6415C22.2382 34.6415 20.4179 34.6415 18.5937 34.6415C16.3984 34.6415 14.2031 34.6415 12.0039 34.6415C10.1093 34.6415 8.21479 34.6415 6.31635 34.6415C5.42963 34.6415 4.54291 34.6493 3.65619 34.6415C3.55854 34.6415 3.46088 34.6337 3.36713 34.622C3.50385 34.6415 3.64447 34.6611 3.78119 34.6767C3.62494 34.6532 3.4765 34.6103 3.33197 34.5517C3.45697 34.6025 3.58197 34.6572 3.70697 34.7079C3.55072 34.6415 3.40619 34.5556 3.26947 34.4501C3.37494 34.5322 3.48041 34.6142 3.58588 34.6962C3.46869 34.5986 3.35932 34.4931 3.26557 34.3759C3.3476 34.4814 3.42963 34.5868 3.51166 34.6923C3.40619 34.5556 3.32416 34.4111 3.25385 34.2548C3.30463 34.3798 3.35932 34.5048 3.4101 34.6298C3.3515 34.4853 3.31244 34.3329 3.2851 34.1806C3.30463 34.3173 3.32416 34.4579 3.33979 34.5947C3.27729 34.122 3.32025 33.622 3.32025 33.1454C3.32025 32.5868 3.32025 32.0322 3.32025 31.4736C3.32025 31.0556 3.34369 30.6415 3.39838 30.2275C3.37885 30.3642 3.35932 30.5048 3.34369 30.6415C3.45307 29.8407 3.664 29.0556 3.98041 28.3095C3.92963 28.4345 3.87494 28.5595 3.82416 28.6845C4.12885 27.9736 4.51947 27.3056 4.99213 26.6923C4.9101 26.7978 4.82807 26.9032 4.74604 27.0087C5.21869 26.4032 5.76166 25.8564 6.37104 25.3837C6.26557 25.4658 6.1601 25.5478 6.05463 25.6298C6.66791 25.1572 7.33588 24.7665 8.04682 24.4618C7.92182 24.5126 7.79682 24.5673 7.67182 24.6181C8.41792 24.3056 9.19917 24.0907 10.0039 23.9814C9.86714 24.0009 9.72651 24.0204 9.58979 24.0361C10.1679 23.9618 10.7421 23.9579 11.3242 23.9579C12.039 23.9579 12.7539 23.9579 13.4687 23.9579C15.1367 23.9579 16.8046 23.9579 18.4726 23.9579C19.1171 23.9579 19.7578 23.954 20.4023 24.0361C20.2656 24.0165 20.125 23.997 19.9882 23.9814C20.789 24.0907 21.5742 24.3017 22.3203 24.6181C22.1953 24.5673 22.0703 24.5126 21.9453 24.4618C22.6562 24.7665 23.3242 25.1572 23.9375 25.6298C23.832 25.5478 23.7265 25.4658 23.6211 25.3837C24.2265 25.8564 24.7734 26.3993 25.2461 27.0087C25.164 26.9032 25.082 26.7978 25 26.6923C25.4726 27.3056 25.8632 27.9736 26.1679 28.6845C26.1172 28.5595 26.0625 28.4345 26.0117 28.3095C26.3242 29.0556 26.539 29.8368 26.6484 30.6415C26.6289 30.5048 26.6093 30.3642 26.5937 30.2275C26.6679 30.8173 26.6718 31.4033 26.6718 31.997C26.6718 32.6415 26.6718 33.2861 26.6718 33.9306C26.6718 34.1533 26.6796 34.3759 26.6523 34.5947C26.6718 34.4579 26.6914 34.3173 26.707 34.1806C26.6836 34.3368 26.6406 34.4853 26.582 34.6298C26.6328 34.5048 26.6875 34.3798 26.7382 34.2548C26.6718 34.4111 26.5859 34.5556 26.4804 34.6923C26.5625 34.5868 26.6445 34.4814 26.7265 34.3759C26.6289 34.4931 26.5234 34.6025 26.4062 34.6962C26.5117 34.6142 26.6171 34.5322 26.7226 34.4501C26.5859 34.5556 26.4414 34.6376 26.2851 34.7079C26.4101 34.6572 26.5351 34.6025 26.6601 34.5517C26.5156 34.6103 26.3632 34.6493 26.2109 34.6767C26.3476 34.6572 26.4882 34.6376 26.625 34.622C26.539 34.6337 26.4492 34.6376 26.3593 34.6415C25.957 34.6454 25.5429 34.8134 25.2539 35.0986C24.9843 35.3681 24.7773 35.8134 24.7968 36.204C24.8359 37.04 25.4843 37.7783 26.3593 37.7665C27.8789 37.7431 29.2148 36.7509 29.6601 35.2939C29.8359 34.7158 29.7968 34.0947 29.7968 33.5009C29.7968 32.1415 29.8398 30.7939 29.6054 29.4462C29.2617 27.4736 28.2695 25.6181 26.9101 24.1611C25.5507 22.704 23.7226 21.6337 21.789 21.1572C20.6796 20.8837 19.5625 20.8408 18.4296 20.8408C17.2656 20.8408 16.1054 20.8408 14.9414 20.8408C13.7929 20.8408 12.6484 20.8408 11.4999 20.8408C10.3398 20.8408 9.18745 20.8954 8.05854 21.1962C6.14057 21.704 4.33588 22.7861 3.00385 24.2548C1.6601 25.7353 0.687439 27.5947 0.371032 29.579C0.160095 30.9111 0.203063 32.247 0.203063 33.5908C0.203063 34.2079 0.167907 34.8525 0.390564 35.4423C0.679627 36.2001 1.14056 36.7978 1.81635 37.247C2.34369 37.5947 3.01166 37.7626 3.63666 37.7704C3.94135 37.7743 4.24604 37.7704 4.55072 37.7704C5.33197 37.7704 6.10932 37.7704 6.89057 37.7704C7.99995 37.7704 9.10542 37.7704 10.2148 37.7704C11.5039 37.7704 12.7929 37.7704 14.082 37.7704C15.4062 37.7704 16.7265 37.7704 18.0507 37.7704C19.2617 37.7704 20.4687 37.7704 21.6796 37.7704C22.6289 37.7704 23.5781 37.7704 24.5234 37.7704C25.0664 37.7704 25.6093 37.7704 26.1523 37.7704C26.2226 37.7704 26.2929 37.7704 26.3632 37.7704C27.1797 37.7704 27.9648 37.0517 27.9257 36.2079C27.8867 35.3564 27.2382 34.6415 26.3593 34.6415Z" fill="white"/>
</svg>
